<svg width="80" height="68" viewBox="0 0 80 68" fill="none" xmlns="http://www.w3.org/2000/svg">
<g clip-path="url(#clip0_26_6425)">
<path d="M35.1602 25.3374L53.0535 10.0325L53.1364 10.2571L35.3063 25.5081L35.1602 25.3374Z" fill="#2F2E41"/>
<path d="M54.5753 13.4962C56.0236 13.4962 57.1976 12.3222 57.1976 10.8739C57.1976 9.42564 56.0236 8.25159 54.5753 8.25159C53.1271 8.25159 51.953 9.42564 51.953 10.8739C51.953 12.3222 53.1271 13.4962 54.5753 13.4962Z" fill="#8D418A"/>
<path d="M76.6774 16.6806H52.7339C52.6313 16.6808 52.5297 16.6607 52.4348 16.6215C52.34 16.5823 52.2538 16.5248 52.1812 16.4523C52.1086 16.3797 52.051 16.2936 52.0117 16.1988C51.9724 16.104 51.9521 16.0024 51.9521 15.8998C51.9521 15.7971 51.9724 15.6955 52.0117 15.6007C52.051 15.5059 52.1086 15.4198 52.1812 15.3473C52.2538 15.2748 52.34 15.2173 52.4348 15.1781C52.5297 15.1389 52.6313 15.1188 52.7339 15.1189H76.6774C76.78 15.1188 76.8817 15.1389 76.9765 15.1781C77.0714 15.2173 77.1576 15.2748 77.2302 15.3473C77.3028 15.4198 77.3604 15.5059 77.3997 15.6007C77.439 15.6955 77.4592 15.7971 77.4592 15.8998C77.4592 16.0024 77.439 16.104 77.3997 16.1988C77.3604 16.2936 77.3028 16.3797 77.2302 16.4523C77.1576 16.5248 77.0714 16.5823 76.9765 16.6215C76.8817 16.6607 76.78 16.6808 76.6774 16.6806Z" fill="#8D418A"/>
<path d="M76.6774 19.7663H52.7339C52.5268 19.7663 52.3282 19.684 52.1817 19.5376C52.0353 19.3911 51.953 19.1925 51.953 18.9854C51.953 18.7783 52.0353 18.5796 52.1817 18.4332C52.3282 18.2867 52.5268 18.2045 52.7339 18.2045H76.6774C76.8845 18.2045 77.0831 18.2867 77.2296 18.4332C77.376 18.5796 77.4583 18.7783 77.4583 18.9854C77.4583 19.1925 77.376 19.3911 77.2296 19.5376C77.0831 19.684 76.8845 19.7663 76.6774 19.7663Z" fill="#8D418A"/>
<path d="M63.1128 22.8519H52.7339C52.5268 22.8519 52.3282 22.7697 52.1817 22.6232C52.0353 22.4768 51.953 22.2781 51.953 22.071C51.953 21.8639 52.0353 21.6653 52.1817 21.5188C52.3282 21.3724 52.5268 21.2901 52.7339 21.2901H63.1128C63.3199 21.2901 63.5186 21.3724 63.665 21.5188C63.8115 21.6653 63.8937 21.8639 63.8937 22.071C63.8937 22.2781 63.8115 22.4768 63.665 22.6232C63.5186 22.7697 63.3199 22.8519 63.1128 22.8519Z" fill="#8D418A"/>
<path d="M58.9951 32.5594C59.9878 32.5594 60.7925 31.7546 60.7925 30.7619C60.7925 29.7693 59.9878 28.9645 58.9951 28.9645C58.0024 28.9645 57.1977 29.7693 57.1977 30.7619C57.1977 31.7546 58.0024 32.5594 58.9951 32.5594Z" fill="#7F747C"/>
<path d="M74.1444 34.742H57.7329C57.6625 34.7421 57.5929 34.7284 57.5278 34.7015C57.4628 34.6747 57.4037 34.6352 57.3539 34.5855C57.3042 34.5358 57.2647 34.4768 57.2377 34.4118C57.2108 34.3468 57.1969 34.2772 57.1969 34.2068C57.1969 34.1364 57.2108 34.0668 57.2377 34.0018C57.2647 33.9368 57.3042 33.8778 57.3539 33.8281C57.4037 33.7784 57.4628 33.7389 57.5278 33.7121C57.5929 33.6852 57.6625 33.6715 57.7329 33.6716H74.1444C74.2147 33.6715 74.2844 33.6852 74.3494 33.7121C74.4144 33.7389 74.4735 33.7784 74.5233 33.8281C74.5731 33.8778 74.6126 33.9368 74.6395 34.0018C74.6665 34.0668 74.6803 34.1364 74.6803 34.2068C74.6803 34.2772 74.6665 34.3468 74.6395 34.4118C74.6126 34.4768 74.5731 34.5358 74.5233 34.5855C74.4735 34.6352 74.4144 34.6747 74.3494 34.7015C74.2844 34.7284 74.2147 34.7421 74.1444 34.742Z" fill="#7F747C"/>
<path d="M61.809 36.857H57.7329C57.5911 36.8568 57.4551 36.8003 57.3549 36.7C57.2547 36.5996 57.1984 36.4636 57.1984 36.3218C57.1984 36.1799 57.2547 36.0439 57.3549 35.9435C57.4551 35.8432 57.5911 35.7867 57.7329 35.7865H61.809C61.9508 35.7867 62.0868 35.8432 62.187 35.9435C62.2872 36.0439 62.3435 36.1799 62.3435 36.3218C62.3435 36.4636 62.2872 36.5996 62.187 36.7C62.0868 36.8003 61.9508 36.8568 61.809 36.857Z" fill="#7F747C"/>
<path d="M53.2585 50.5339C54.2511 50.5339 55.0559 49.7292 55.0559 48.7365C55.0559 47.7438 54.2511 46.9391 53.2585 46.9391C52.2658 46.9391 51.4611 47.7438 51.4611 48.7365C51.4611 49.7292 52.2658 50.5339 53.2585 50.5339Z" fill="#7F747C"/>
<path d="M68.4078 52.7166H51.9963C51.926 52.7167 51.8563 52.7029 51.7913 52.6761C51.7262 52.6492 51.6671 52.6098 51.6174 52.5601C51.5676 52.5104 51.5281 52.4513 51.5011 52.3863C51.4742 52.3214 51.4603 52.2517 51.4603 52.1814C51.4603 52.111 51.4742 52.0413 51.5011 51.9763C51.5281 51.9114 51.5676 51.8523 51.6174 51.8026C51.6671 51.7529 51.7262 51.7135 51.7913 51.6866C51.8563 51.6598 51.926 51.646 51.9963 51.6461H68.4078C68.4781 51.646 68.5478 51.6598 68.6128 51.6866C68.6779 51.7135 68.737 51.7529 68.7867 51.8026C68.8365 51.8523 68.876 51.9114 68.903 51.9763C68.9299 52.0413 68.9438 52.111 68.9438 52.1814C68.9438 52.2517 68.9299 52.3214 68.903 52.3863C68.876 52.4513 68.8365 52.5104 68.7867 52.5601C68.737 52.6098 68.6779 52.6492 68.6128 52.6761C68.5478 52.7029 68.4781 52.7167 68.4078 52.7166Z" fill="#7F747C"/>
<path d="M61.858 54.8316H51.9963C51.8544 54.8316 51.7182 54.7752 51.6178 54.6748C51.5174 54.5744 51.4611 54.4383 51.4611 54.2963C51.4611 54.1543 51.5174 54.0182 51.6178 53.9178C51.7182 53.8174 51.8544 53.761 51.9963 53.761H61.858C62 53.761 62.1361 53.8174 62.2365 53.9178C62.3369 54.0182 62.3933 54.1543 62.3933 54.2963C62.3933 54.4383 62.3369 54.5744 62.2365 54.6748C62.1361 54.7752 62 54.8316 61.858 54.8316Z" fill="#7F747C"/>
<path d="M59.1103 56.9465H51.9963C51.8544 56.9465 51.7182 56.8901 51.6178 56.7897C51.5174 56.6893 51.4611 56.5532 51.4611 56.4112C51.4611 56.2693 51.5174 56.1331 51.6178 56.0328C51.7182 55.9324 51.8544 55.876 51.9963 55.876H59.1103C59.2522 55.876 59.3884 55.9324 59.4888 56.0328C59.5892 56.1331 59.6455 56.2693 59.6455 56.4112C59.6455 56.5532 59.5892 56.6893 59.4888 56.7897C59.3884 56.8901 59.2522 56.9465 59.1103 56.9465Z" fill="#7F747C"/>
<path d="M4.6479 62.932C1.84087 61.6019 -0.24994 58.9257 0.0762151 55.9847C2.59449 58.0239 6.02304 59.1626 9.56246 59.1353C10.941 59.1247 12.4849 58.9845 13.4867 59.758C14.1101 60.2393 14.3912 61.0036 14.4268 61.7653C14.4623 62.527 14.2776 63.298 14.094 64.0589L14.1498 64.2392C10.854 64.449 7.45493 64.2622 4.6479 62.932Z" fill="#979797"/>
<path d="M0.14536 55.9774C1.23101 58.0957 3.11327 59.8613 5.45251 60.8948C5.96505 61.134 6.51078 61.2943 7.07123 61.3704C7.64198 61.4301 8.21876 61.3547 8.755 61.1503C9.26339 60.9679 9.76453 60.7303 10.3037 60.658C10.5677 60.6212 10.8364 60.638 11.0937 60.7073C11.3511 60.7767 11.5918 60.8973 11.8015 61.0619C12.2997 61.4493 12.5969 61.9855 12.8662 62.5203C13.1652 63.1142 13.4648 63.736 14.0503 64.1407C14.1212 64.1898 14.0224 64.2917 13.9516 64.2428C12.9329 63.5387 12.7859 62.2654 11.9765 61.4126C11.5988 61.0147 11.0746 60.7261 10.4453 60.7725C9.8951 60.8131 9.37812 61.0577 8.8648 61.2463C8.34286 61.4524 7.78282 61.5443 7.22238 61.5158C6.65737 61.466 6.10409 61.3253 5.58393 61.0992C4.4529 60.6284 3.4059 59.9769 2.48388 59.1702C1.46522 58.2893 0.624302 57.2218 0.00635041 56.0252C-0.0311512 55.952 0.108104 55.9047 0.14536 55.9774Z" fill="white"/>
<path d="M4.66888 60.5963C4.37338 60.9449 3.97658 61.1927 3.53367 61.3053C3.09075 61.4179 2.62376 61.3896 2.19767 61.2244C2.11597 61.19 2.18269 61.0703 2.26449 61.1048C2.66093 61.2592 3.09581 61.2855 3.50798 61.1799C3.92015 61.0744 4.28886 60.8423 4.56227 60.5163C4.61968 60.4465 4.72596 60.5268 4.66888 60.5963Z" fill="white"/>
<path d="M8.5081 61.2722C8.45372 60.8584 8.31233 60.4609 8.09324 60.1057C7.87415 59.7505 7.58232 59.4457 7.23695 59.2114C7.16623 59.1621 7.265 59.0601 7.33563 59.1093C7.6945 59.3538 7.99747 59.6716 8.22458 60.0417C8.4517 60.4118 8.5978 60.8259 8.65325 61.2566C8.6633 61.3386 8.51809 61.3539 8.5081 61.2722Z" fill="white"/>
<path d="M1.63186 58.1993C1.76684 58.0956 1.87309 57.9591 1.94052 57.8028C2.00795 57.6464 2.03432 57.4755 2.01715 57.3061C2.00593 57.2243 2.15116 57.2092 2.16231 57.2905C2.18044 57.4776 2.15111 57.6663 2.07703 57.8391C2.00295 58.012 1.8865 58.1633 1.73846 58.2792C1.72511 58.2924 1.7077 58.3007 1.68907 58.3027C1.67043 58.3047 1.65166 58.3003 1.63582 58.2903C1.62894 58.285 1.62331 58.2783 1.61931 58.2706C1.61531 58.2629 1.61304 58.2544 1.61267 58.2457C1.61229 58.2371 1.61381 58.2284 1.61713 58.2204C1.62044 58.2124 1.62547 58.2052 1.63186 58.1993Z" fill="white"/>
<path d="M9.3375 49.7664C9.34616 49.8172 9.35481 49.868 9.36456 49.9192C9.48467 50.6004 9.66818 51.2688 9.9127 51.9158C9.93068 51.9661 9.94977 52.0168 9.96939 52.0665C10.5877 53.633 11.528 55.0523 12.7295 56.2326C13.2189 56.7148 13.7468 57.1563 14.308 57.5528C15.0902 58.1063 15.9929 58.6471 16.4879 59.3928C16.5404 59.4697 16.5874 59.5502 16.6286 59.6337L14.3985 64.146C14.3878 64.1544 14.3782 64.1632 14.3676 64.1716L14.2875 64.3548C14.2565 64.336 14.2248 64.316 14.1938 64.2973C14.1758 64.2865 14.1582 64.2747 14.1402 64.2639C14.1283 64.2564 14.1165 64.2488 14.1052 64.2427C14.1013 64.2402 14.0973 64.2376 14.0945 64.2355C14.0832 64.2294 14.0736 64.2226 14.0635 64.2168C13.8862 64.1052 13.7096 63.9922 13.5337 63.8778C13.5325 63.8774 13.5325 63.8774 13.5319 63.8761C12.1942 63.0014 10.9361 62.0129 9.90246 60.8726C9.87137 60.8382 9.83914 60.8036 9.80908 60.7672C9.34962 60.2547 8.93813 59.7012 8.57977 59.1136C8.38669 58.794 8.21226 58.4635 8.05734 58.1238C7.65979 57.2462 7.42424 56.3039 7.36205 55.3424C7.23609 53.4164 7.8074 51.425 9.22777 49.8833C9.26414 49.8439 9.30002 49.8054 9.3375 49.7664Z" fill="#979797"/>
<path d="M9.39452 49.7972C8.77333 52.1793 8.98737 54.6916 10.0391 56.8294C10.2579 57.3041 10.5592 57.7362 10.9291 58.1055C11.3253 58.4686 11.8124 58.7178 12.3387 58.8266C12.8429 58.946 13.3789 59.0146 13.8315 59.244C14.0535 59.3552 14.2461 59.5174 14.3935 59.7172C14.5409 59.9171 14.6389 60.1491 14.6795 60.3941C14.7902 60.9913 14.6498 61.6063 14.4893 62.2051C14.3112 62.87 14.1146 63.559 14.2789 64.2179C14.2989 64.2978 14.1559 64.331 14.136 64.2513C13.85 63.1049 14.6018 61.9457 14.5731 60.7859C14.5597 60.2447 14.3625 59.7174 13.86 59.4175C13.4206 59.1553 12.8679 59.084 12.356 58.9672C11.8387 58.8668 11.3539 58.6412 10.9439 58.3103C10.5533 57.9618 10.2327 57.5421 9.99919 57.0736C9.46402 56.0414 9.12007 54.9208 8.98397 53.7661C8.82064 52.4263 8.91367 51.0677 9.2581 49.7627C9.27955 49.6805 9.41584 49.7154 9.39452 49.7972Z" fill="white"/>
<path d="M9.65457 56.1537C8.73713 56.4411 7.76386 56.0973 7.37918 55.3542C7.34129 55.281 7.47227 55.2154 7.51022 55.2887C7.87059 55.9848 8.77127 56.2971 9.62887 56.0284C9.71913 56.0001 9.74431 56.1256 9.65457 56.1537Z" fill="white"/>
<path d="M12.0714 58.7968C12.3063 58.4424 12.4667 58.044 12.5429 57.6257C12.6191 57.2074 12.6095 56.778 12.5148 56.3635C12.4952 56.2836 12.6382 56.2504 12.6577 56.3302C12.7554 56.7618 12.7644 57.2088 12.6841 57.644C12.6038 58.0792 12.436 58.4935 12.1907 58.8618C12.1426 58.9369 12.0236 58.8715 12.0714 58.7968Z" fill="white"/>
<path d="M9.00337 52.4832C9.18351 52.4628 9.35694 52.403 9.5113 52.308C9.66567 52.2129 9.79718 52.085 9.89647 51.9333C9.94347 51.8578 10.0624 51.9233 10.0157 51.9983C9.90535 52.1654 9.75993 52.3066 9.58955 52.412C9.41918 52.5173 9.22793 52.5844 9.02907 52.6085C8.98958 52.6132 8.95274 52.5993 8.94473 52.5625C8.94253 52.5443 8.94738 52.5259 8.95828 52.5112C8.96919 52.4964 8.98532 52.4864 9.00337 52.4832Z" fill="white"/>
<path d="M16.0261 19.5617L19.8218 23.5922L28.6565 26.8306L29.7181 24.8584L22.9195 21.2433C22.9195 21.2433 19.8544 18.0409 18.036 17.3812L16.0261 19.5617Z" fill="#A0616A"/>
<path d="M29.5734 27.3352C30.2969 27.3352 30.8834 26.7487 30.8834 26.0252C30.8834 25.3018 30.2969 24.7153 29.5734 24.7153C28.85 24.7153 28.2635 25.3018 28.2635 26.0252C28.2635 26.7487 28.85 27.3352 29.5734 27.3352Z" fill="#A0616A"/>
<path d="M18.9715 17.6053L16.2585 20.0007L16.2457 20.004C14.9843 20.326 13.1626 18.8383 11.8564 17.5335C11.4261 17.1029 11.1753 16.525 11.1548 15.9166C11.1343 15.3082 11.3455 14.7146 11.7458 14.256C12.0434 13.9197 12.4291 13.6733 12.8594 13.5447C13.2897 13.4161 13.7473 13.4104 14.1807 13.5283L16.3858 14.1367L18.9715 17.6053Z" fill="#3F3D56"/>
<path d="M22.0056 65.1852L23.8753 65.1851L24.7648 57.9733L22.0052 57.9734L22.0056 65.1852Z" fill="#A0616A"/>
<path d="M21.5286 64.5747L22.0549 64.5747L24.1096 63.7391L25.2108 64.5746H25.2109C25.8333 64.5746 26.4301 64.8219 26.8702 65.2619C27.3102 65.702 27.5575 66.2988 27.5575 66.9211V66.9974L21.5287 66.9976L21.5286 64.5747Z" fill="#2F2E41"/>
<path d="M13.7093 65.1852L15.579 65.1851L16.4684 57.9733L13.7089 57.9734L13.7093 65.1852Z" fill="#A0616A"/>
<path d="M13.2323 64.5747L13.7586 64.5747L15.8132 63.7391L16.9145 64.5746H16.9146C17.537 64.5746 18.1338 64.8219 18.5739 65.2619C19.0139 65.702 19.2612 66.2988 19.2612 66.9211V66.9974L13.2324 66.9976L13.2323 64.5747Z" fill="#2F2E41"/>
<path d="M10.8583 34.1213C10.8583 34.1213 10.6399 36.7412 11.1857 39.2519C11.7315 41.7627 11.7315 48.8337 11.7315 48.8337L12.9323 62.6127L16.5347 62.2852L17.5172 39.2519L21.0104 47.0025L20.6829 48.0941L21.1191 48.367C21.1191 48.367 20.792 50.4957 21.0104 50.4957C21.2287 50.4957 21.7745 50.8232 21.7745 50.8232L21.3378 62.0669L25.0494 61.9577L26.3593 46.1292L24.9402 37.0687L24.831 35.3221L24.3398 35.3423L24.0897 34.6125L23.6302 33.3572L10.8583 34.1213Z" fill="#2F2E41"/>
<path d="M10.6696 34.6716L10.6501 34.6443C9.61106 33.1896 11.1738 29.6939 11.4095 29.1872L10.4168 28.865L10.6403 26.9648L10.7462 26.1176L9.98748 25.3588L9.98535 25.3399L9.5487 21.5192L8.91382 18.9816C8.6746 18.0222 8.69499 17.0165 8.97289 16.0677C9.25078 15.1188 9.77617 14.261 10.4951 13.5823L11.9626 12.1987L13.7461 9.55975H16.6222L17.6083 11.4224C18.5644 11.6434 19.4127 12.1928 20.0053 12.9749C20.598 13.7569 20.8975 14.7222 20.8517 15.7024L20.6283 20.5877L21.5032 26.6703L21.5037 27.7711L22.4884 28.8653L22.2734 29.9404L23.0227 30.2615L23.3536 31.8056C23.4906 31.9863 24.3944 33.1914 24.3944 33.5209C24.3944 33.5704 24.3579 33.6182 24.2795 33.6712C23.6636 34.0883 20.2591 34.9386 18.7523 34.3357C17.1473 33.6939 10.767 34.6567 10.7027 34.6665L10.6696 34.6716Z" fill="#3F3D56"/>
<path d="M34.2556 66.9582C34.2557 66.9752 34.2524 66.9921 34.2459 67.0078C34.2394 67.0235 34.2299 67.0378 34.2179 67.0499C34.206 67.062 34.1917 67.0716 34.176 67.0781C34.1603 67.0847 34.1435 67.0881 34.1265 67.0881H3.52859C3.49413 67.0881 3.46109 67.0744 3.43673 67.0501C3.41237 67.0257 3.39868 66.9927 3.39868 66.9582C3.39868 66.9238 3.41237 66.8907 3.43673 66.8664C3.46109 66.842 3.49413 66.8283 3.52859 66.8283H34.1257C34.1601 66.8282 34.193 66.8417 34.2174 66.866C34.2418 66.8902 34.2555 66.9231 34.2556 66.9574V66.9582Z" fill="#CCCCCC"/>
<path d="M15.5556 8.70788C17.6593 8.70788 19.3646 7.00254 19.3646 4.89889C19.3646 2.79525 17.6593 1.0899 15.5556 1.0899C13.452 1.0899 11.7466 2.79525 11.7466 4.89889C11.7466 7.00254 13.452 8.70788 15.5556 8.70788Z" fill="#A0616A"/>
<path d="M15.9205 8.76957C15.3307 8.76355 14.7424 8.70715 14.1621 8.60098C13.5876 8.46863 12.3201 7.48852 11.9746 6.9095C11.718 6.4793 11.5639 5.81388 11.4799 5.33144C11.3664 4.69297 11.3882 4.03778 11.5441 3.4083C11.6999 2.77882 11.9862 2.18908 12.3844 1.67727C12.5379 1.46286 12.7465 1.29393 12.9881 1.18834C13.0095 1.18061 13.0315 1.17384 13.0536 1.16814C13.4039 1.08558 13.7215 0.900223 13.9656 0.635859C14.013 0.582337 14.0642 0.5323 14.1188 0.486134C14.3927 0.26684 14.7146 0.115477 15.0582 0.0444208C15.6133 -0.0888872 16.4073 0.0781624 17.4182 0.541355C17.9261 0.774071 18.4897 0.709148 18.9242 0.626583C18.9486 0.622529 18.9736 0.624922 18.9967 0.633525C19.0199 0.642129 19.0403 0.656643 19.0561 0.675622C19.2355 0.852935 19.4753 0.955787 19.7274 0.963506C19.8817 0.974273 20.0382 1.19228 20.2268 1.47616C20.2696 1.54061 20.3196 1.61582 20.3558 1.66171L20.363 1.57552L20.4479 1.67407C20.5813 1.82897 20.6733 2.0151 20.7154 2.21514C20.7575 2.41518 20.7483 2.62262 20.6887 2.81814C20.629 3.01366 20.5208 3.19091 20.3742 3.33337C20.2276 3.47583 20.0474 3.57888 19.8502 3.63292C19.6938 3.67024 19.534 3.69149 19.3733 3.69635C19.2758 3.70259 19.1751 3.70904 19.0783 3.72327C18.7673 3.77862 18.4761 3.91364 18.2329 4.11516C17.9898 4.31668 17.803 4.57781 17.6909 4.87304C17.6644 4.94127 17.6226 5.00251 17.5688 5.05202C17.5149 5.10153 17.4503 5.138 17.3801 5.1586C17.3099 5.1792 17.2358 5.18339 17.1637 5.17085C17.0916 5.15831 17.0234 5.12936 16.9642 5.08625C16.8659 5.00549 16.7494 4.94972 16.6249 4.9237C16.5003 4.89767 16.3712 4.90216 16.2488 4.93679C16.1423 4.99246 16.0582 5.08306 16.0105 5.19339C15.9529 5.31619 15.86 5.41904 15.7437 5.48884C15.3472 5.68051 15.2971 6.5737 15.4184 7.32248C15.5354 8.04424 15.7898 8.57076 16.0371 8.60285C16.2275 8.62753 16.249 8.64165 16.2619 8.67577L16.2735 8.70631L16.2513 8.73403C16.2297 8.75875 16.1036 8.76957 15.9205 8.76957Z" fill="#2F2E41"/>
<path d="M34.6062 37.6478C38.3314 37.6478 41.3512 34.6279 41.3512 30.9028C41.3512 27.1776 38.3314 24.1577 34.6062 24.1577C30.881 24.1577 27.8611 27.1776 27.8611 30.9028C27.8611 34.6279 30.881 37.6478 34.6062 37.6478Z" fill="#8D418A"/>
<path d="M34.0174 33.5464C34.0028 33.5464 33.988 33.546 33.9733 33.5453C33.8439 33.5391 33.7175 33.5049 33.6026 33.4452C33.4876 33.3854 33.387 33.3016 33.3075 33.1993L32.2444 31.8326C32.0983 31.6443 32.0328 31.4057 32.0623 31.1692C32.0918 30.9326 32.214 30.7175 32.402 30.5709L32.4401 30.5412C32.6285 30.3951 32.8671 30.3295 33.1037 30.359C33.3403 30.3886 33.5555 30.5107 33.7022 30.6986C33.7499 30.7601 33.8103 30.8104 33.8793 30.8463C33.9483 30.8821 34.0243 30.9027 34.1019 30.9064C34.1797 30.911 34.2575 30.8983 34.3298 30.8693C34.4021 30.8403 34.4671 30.7957 34.5201 30.7387L36.6786 28.4602C36.8427 28.2873 37.0687 28.1866 37.307 28.1802C37.5452 28.1738 37.7764 28.2621 37.9496 28.4258L37.9847 28.4589C38.1576 28.6231 38.2584 28.8491 38.2649 29.0874C38.2714 29.3257 38.183 29.5569 38.0193 29.7301L34.6698 33.2656C34.5859 33.3544 34.4847 33.425 34.3725 33.4733C34.2603 33.5216 34.1395 33.5464 34.0174 33.5464Z" fill="white"/>
<path d="M16.7979 19.7018L19.4439 24.565L27.1646 29.9436L28.6929 28.3062L23.0371 23.081C23.0371 23.081 20.8871 19.2045 19.2962 18.1041L16.7979 19.7018Z" fill="#A0616A"/>
<path d="M28.2563 30.7077C28.9798 30.7077 29.5662 30.1212 29.5662 29.3978C29.5662 28.6743 28.9798 28.0878 28.2563 28.0878C27.5328 28.0878 26.9464 28.6743 26.9464 29.3978C26.9464 30.1212 27.5328 30.7077 28.2563 30.7077Z" fill="#A0616A"/>
<path d="M17.0361 20.3501L15.3721 16.3566L15.974 14.1497C16.0937 13.7169 16.3321 13.3262 16.6622 13.0217C16.9924 12.7173 17.4011 12.5112 17.8421 12.4269C18.4408 12.3165 19.0591 12.4377 19.5719 12.7657C20.0847 13.0938 20.4538 13.6044 20.6045 14.1942C21.0602 15.9833 21.4102 18.3092 20.4898 19.2297L20.4804 19.239L17.0361 20.3501Z" fill="#3F3D56"/>
<path d="M54.1473 12.3566C54.1413 12.3566 54.1352 12.3565 54.1292 12.3562C54.076 12.3536 54.0239 12.3395 53.9767 12.315C53.9294 12.2904 53.888 12.2559 53.8553 12.2138L53.4179 11.6516C53.3578 11.5741 53.3309 11.476 53.343 11.3786C53.3552 11.2813 53.4054 11.1928 53.4828 11.1325L53.4984 11.1203C53.5759 11.0602 53.6741 11.0332 53.7714 11.0454C53.8688 11.0575 53.9573 11.1078 54.0176 11.1851C54.0373 11.2103 54.0621 11.2311 54.0905 11.2458C54.1189 11.2606 54.1501 11.269 54.1821 11.2706C54.2141 11.2724 54.2461 11.2672 54.2758 11.2553C54.3056 11.2433 54.3323 11.225 54.3541 11.2015L55.2421 10.2642C55.3096 10.1931 55.4026 10.1517 55.5006 10.149C55.5987 10.1463 55.6937 10.1827 55.765 10.25L55.7795 10.2637C55.8506 10.3312 55.892 10.4242 55.8947 10.5222C55.8974 10.6203 55.861 10.7154 55.7937 10.7866L54.4157 12.2411C54.3812 12.2776 54.3396 12.3067 54.2934 12.3266C54.2473 12.3464 54.1975 12.3566 54.1473 12.3566Z" fill="white"/>
<path d="M74.9905 53.4472C75.771 53.9769 76.6384 54.573 76.8899 55.5399C76.9478 55.7464 76.9632 55.9625 76.9354 56.1752C76.9075 56.3878 76.8369 56.5926 76.7279 56.7773C76.5276 57.1111 76.2293 57.3734 75.9382 57.6261C75.5925 57.9264 75.244 58.2215 74.9757 58.5964C74.8529 58.7681 75.1368 58.9318 75.2585 58.7617C75.7558 58.0666 76.5823 57.6729 77.02 56.9271C77.5376 56.0449 77.1922 54.9988 76.5507 54.2847C76.1504 53.839 75.6484 53.4987 75.1558 53.1644C74.981 53.0457 74.8169 53.3293 74.9905 53.4472Z" fill="#7F747C"/>
<path d="M77.7196 53.4472C78.5 53.9769 79.3675 54.573 79.619 55.5399C79.6768 55.7464 79.6923 55.9625 79.6644 56.1752C79.6366 56.3878 79.566 56.5926 79.457 56.7773C79.2567 57.1111 78.9583 57.3734 78.6673 57.6261C78.3215 57.9264 77.973 58.2215 77.7048 58.5964C77.5819 58.7681 77.8658 58.9318 77.9876 58.7617C78.4849 58.0666 79.3114 57.6729 79.749 56.9271C80.2667 56.0449 79.9213 54.9988 79.2798 54.2847C78.8794 53.839 78.3774 53.4987 77.8849 53.1644C77.71 53.0457 77.546 53.3293 77.7196 53.4472Z" fill="#7F747C"/>
<path d="M51.7422 29.4482C51.9158 29.3304 51.7518 29.0468 51.5769 29.1655C51.0844 29.4998 50.5824 29.8401 50.1821 30.2858C49.5406 30.9999 49.1951 32.046 49.7128 32.9282C50.1505 33.674 50.9769 34.0677 51.4743 34.7628C51.596 34.9329 51.8799 34.7692 51.757 34.5975C51.4888 34.2226 51.1403 33.9275 50.7945 33.6272C50.5035 33.3745 50.2051 33.1122 50.0049 32.7784C49.8958 32.5937 49.8252 32.3889 49.7974 32.1763C49.7695 31.9636 49.785 31.7475 49.8428 31.541C50.0943 30.5741 50.9618 29.978 51.7422 29.4482Z" fill="#7F747C"/>
<path d="M49.0132 29.4482C49.1868 29.3304 49.0228 29.0468 48.8479 29.1655C48.3554 29.4998 47.8534 29.8401 47.4531 30.2858C46.8116 30.9999 46.4661 32.046 46.9838 32.9282C47.4215 33.674 48.2479 34.0677 48.7453 34.7628C48.867 34.9329 49.1509 34.7692 49.028 34.5975C48.7598 34.2226 48.4113 33.9275 48.0655 33.6272C47.7745 33.3745 47.4761 33.1122 47.2758 32.7784C47.1668 32.5937 47.0962 32.3889 47.0684 32.1763C47.0405 31.9636 47.056 31.7475 47.1138 31.541C47.3653 30.5741 48.2328 29.978 49.0132 29.4482Z" fill="#7F747C"/>
</g>
<defs>
<clipPath id="clip0_26_6425">
<rect width="80" height="67.0881" fill="white"/>
</clipPath>
</defs>
</svg>
