<svg width="80" height="68" viewBox="0 0 80 68" fill="none" xmlns="http://www.w3.org/2000/svg">
<g clip-path="url(#clip0_60_14077)">
<path d="M35.1602 25.4255L53.0535 10.1206L53.1364 10.3453L35.3063 25.5962L35.1602 25.4255Z" fill="#2F2E41"/>
<path d="M54.5753 13.5844C56.0236 13.5844 57.1976 12.4103 57.1976 10.9621C57.1976 9.51381 56.0236 8.33975 54.5753 8.33975C53.1271 8.33975 51.953 9.51381 51.953 10.9621C51.953 12.4103 53.1271 13.5844 54.5753 13.5844Z" fill="#FFAAF6"/>
<path d="M76.6774 16.7688H52.7339C52.6313 16.7689 52.5297 16.7488 52.4348 16.7096C52.34 16.6704 52.2538 16.6129 52.1812 16.5404C52.1086 16.4679 52.051 16.3818 52.0117 16.287C51.9724 16.1922 51.9521 16.0906 51.9521 15.9879C51.9521 15.8853 51.9724 15.7837 52.0117 15.6889C52.051 15.5941 52.1086 15.508 52.1812 15.4354C52.2538 15.3629 52.34 15.3054 52.4348 15.2662C52.5297 15.227 52.6313 15.2069 52.7339 15.2071H76.6774C76.78 15.2069 76.8817 15.227 76.9765 15.2662C77.0714 15.3054 77.1576 15.3629 77.2302 15.4354C77.3028 15.508 77.3604 15.5941 77.3997 15.6889C77.439 15.7837 77.4592 15.8853 77.4592 15.9879C77.4592 16.0906 77.439 16.1922 77.3997 16.287C77.3604 16.3818 77.3028 16.4679 77.2302 16.5404C77.1576 16.6129 77.0714 16.6704 76.9765 16.7096C76.8817 16.7488 76.78 16.7689 76.6774 16.7688Z" fill="#FFAAF6"/>
<path d="M76.6774 19.8544H52.7339C52.5268 19.8544 52.3282 19.7722 52.1817 19.6257C52.0353 19.4793 51.953 19.2806 51.953 19.0735C51.953 18.8664 52.0353 18.6678 52.1817 18.5213C52.3282 18.3749 52.5268 18.2926 52.7339 18.2926H76.6774C76.8845 18.2926 77.0831 18.3749 77.2296 18.5213C77.376 18.6678 77.4583 18.8664 77.4583 19.0735C77.4583 19.2806 77.376 19.4793 77.2296 19.6257C77.0831 19.7722 76.8845 19.8544 76.6774 19.8544Z" fill="#FFAAF6"/>
<path d="M63.1128 22.9401H52.7339C52.5268 22.9401 52.3282 22.8578 52.1817 22.7113C52.0353 22.5649 51.953 22.3663 51.953 22.1591C51.953 21.952 52.0353 21.7534 52.1817 21.607C52.3282 21.4605 52.5268 21.3782 52.7339 21.3782H63.1128C63.3199 21.3782 63.5186 21.4605 63.665 21.607C63.8115 21.7534 63.8937 21.952 63.8937 22.1591C63.8937 22.3663 63.8115 22.5649 63.665 22.7113C63.5186 22.8578 63.3199 22.9401 63.1128 22.9401Z" fill="#FFAAF6"/>
<path d="M58.9951 32.6475C59.9878 32.6475 60.7925 31.8428 60.7925 30.8501C60.7925 29.8574 59.9878 29.0527 58.9951 29.0527C58.0024 29.0527 57.1977 29.8574 57.1977 30.8501C57.1977 31.8428 58.0024 32.6475 58.9951 32.6475Z" fill="#9A8D95"/>
<path d="M74.1444 34.8302H57.7329C57.6625 34.8303 57.5929 34.8165 57.5278 34.7897C57.4628 34.7628 57.4037 34.7234 57.3539 34.6737C57.3042 34.624 57.2647 34.565 57.2377 34.5C57.2108 34.435 57.1969 34.3653 57.1969 34.295C57.1969 34.2246 57.2108 34.155 57.2377 34.09C57.2647 34.025 57.3042 33.9659 57.3539 33.9162C57.4037 33.8665 57.4628 33.8271 57.5278 33.8003C57.5929 33.7734 57.6625 33.7596 57.7329 33.7597H74.1444C74.2147 33.7596 74.2844 33.7734 74.3494 33.8003C74.4144 33.8271 74.4735 33.8665 74.5233 33.9162C74.5731 33.9659 74.6126 34.025 74.6395 34.09C74.6665 34.155 74.6803 34.2246 74.6803 34.295C74.6803 34.3653 74.6665 34.435 74.6395 34.5C74.6126 34.565 74.5731 34.624 74.5233 34.6737C74.4735 34.7234 74.4144 34.7628 74.3494 34.7897C74.2844 34.8165 74.2147 34.8303 74.1444 34.8302Z" fill="#9A8D95"/>
<path d="M61.809 36.9452H57.7329C57.5911 36.945 57.4551 36.8885 57.3549 36.7881C57.2547 36.6878 57.1984 36.5517 57.1984 36.4099C57.1984 36.2681 57.2547 36.132 57.3549 36.0317C57.4551 35.9313 57.5911 35.8748 57.7329 35.8746H61.809C61.9508 35.8748 62.0868 35.9313 62.187 36.0317C62.2872 36.132 62.3435 36.2681 62.3435 36.4099C62.3435 36.5517 62.2872 36.6878 62.187 36.7881C62.0868 36.8885 61.9508 36.945 61.809 36.9452Z" fill="#9A8D95"/>
<path d="M53.2585 50.622C54.2511 50.622 55.0559 49.8173 55.0559 48.8246C55.0559 47.8319 54.2511 47.0272 53.2585 47.0272C52.2658 47.0272 51.4611 47.8319 51.4611 48.8246C51.4611 49.8173 52.2658 50.622 53.2585 50.622Z" fill="#9A8D95"/>
<path d="M68.4078 52.8047H51.9963C51.926 52.8048 51.8563 52.791 51.7913 52.7642C51.7262 52.7373 51.6671 52.6979 51.6174 52.6482C51.5676 52.5985 51.5281 52.5395 51.5011 52.4745C51.4742 52.4095 51.4603 52.3398 51.4603 52.2695C51.4603 52.1991 51.4742 52.1295 51.5011 52.0645C51.5281 51.9995 51.5676 51.9405 51.6174 51.8907C51.6671 51.841 51.7262 51.8016 51.7913 51.7748C51.8563 51.7479 51.926 51.7342 51.9963 51.7343H68.4078C68.4781 51.7342 68.5478 51.7479 68.6128 51.7748C68.6779 51.8016 68.737 51.841 68.7867 51.8907C68.8365 51.9405 68.876 51.9995 68.903 52.0645C68.9299 52.1295 68.9438 52.1991 68.9438 52.2695C68.9438 52.3398 68.9299 52.4095 68.903 52.4745C68.876 52.5395 68.8365 52.5985 68.7867 52.6482C68.737 52.6979 68.6779 52.7373 68.6128 52.7642C68.5478 52.791 68.4781 52.8048 68.4078 52.8047Z" fill="#9A8D95"/>
<path d="M61.858 54.9197H51.9963C51.8544 54.9197 51.7182 54.8633 51.6178 54.7629C51.5174 54.6625 51.4611 54.5264 51.4611 54.3844C51.4611 54.2425 51.5174 54.1063 51.6178 54.0059C51.7182 53.9055 51.8544 53.8492 51.9963 53.8492H61.858C62 53.8492 62.1361 53.9055 62.2365 54.0059C62.3369 54.1063 62.3933 54.2425 62.3933 54.3844C62.3933 54.5264 62.3369 54.6625 62.2365 54.7629C62.1361 54.8633 62 54.9197 61.858 54.9197Z" fill="#9A8D95"/>
<path d="M59.1103 57.0346H51.9963C51.8544 57.0346 51.7182 56.9782 51.6178 56.8779C51.5174 56.7775 51.4611 56.6413 51.4611 56.4994C51.4611 56.3574 51.5174 56.2213 51.6178 56.1209C51.7182 56.0205 51.8544 55.9641 51.9963 55.9641H59.1103C59.2522 55.9641 59.3884 56.0205 59.4888 56.1209C59.5892 56.2213 59.6455 56.3574 59.6455 56.4994C59.6455 56.6413 59.5892 56.7775 59.4888 56.8779C59.3884 56.9782 59.2522 57.0346 59.1103 57.0346Z" fill="#9A8D95"/>
<path d="M4.6479 63.0201C1.84087 61.69 -0.24994 59.0138 0.0762151 56.0728C2.59449 58.112 6.02304 59.2507 9.56246 59.2234C10.941 59.2128 12.4849 59.0726 13.4867 59.8461C14.1101 60.3274 14.3912 61.0917 14.4268 61.8534C14.4623 62.6152 14.2776 63.3861 14.094 64.147L14.1498 64.3273C10.854 64.5371 7.45493 64.3503 4.6479 63.0201Z" fill="#979797"/>
<path d="M0.14536 56.0655C1.23101 58.1839 3.11327 59.9495 5.45251 60.9829C5.96505 61.2221 6.51078 61.3824 7.07123 61.4585C7.64198 61.5182 8.21876 61.4428 8.755 61.2384C9.26339 61.056 9.76453 60.8184 10.3037 60.7462C10.5677 60.7093 10.8364 60.7261 11.0937 60.7955C11.3511 60.8649 11.5918 60.9854 11.8015 61.15C12.2997 61.5374 12.5969 62.0736 12.8662 62.6084C13.1652 63.2023 13.4648 63.8241 14.0503 64.2288C14.1212 64.2779 14.0224 64.3799 13.9516 64.3309C12.9329 63.6268 12.7859 62.3535 11.9765 61.5007C11.5988 61.1028 11.0746 60.8143 10.4453 60.8607C9.8951 60.9012 9.37812 61.1459 8.8648 61.3344C8.34286 61.5406 7.78282 61.6325 7.22238 61.6039C6.65737 61.5541 6.10409 61.4135 5.58393 61.1873C4.4529 60.7165 3.4059 60.0651 2.48388 59.2584C1.46522 58.3774 0.624302 57.3099 0.00635041 56.1133C-0.0311512 56.0401 0.108104 55.9928 0.14536 56.0655Z" fill="white"/>
<path d="M4.66888 60.6844C4.37338 61.033 3.97658 61.2808 3.53367 61.3934C3.09075 61.506 2.62376 61.4777 2.19767 61.3125C2.11597 61.2782 2.18269 61.1585 2.26449 61.1929C2.66093 61.3473 3.09581 61.3736 3.50798 61.2681C3.92015 61.1625 4.28886 60.9305 4.56227 60.6045C4.61968 60.5346 4.72596 60.615 4.66888 60.6844Z" fill="white"/>
<path d="M8.5081 61.3603C8.45372 60.9465 8.31233 60.549 8.09324 60.1938C7.87415 59.8386 7.58232 59.5338 7.23695 59.2995C7.16623 59.2502 7.265 59.1482 7.33563 59.1974C7.6945 59.4419 7.99747 59.7597 8.22458 60.1298C8.4517 60.4999 8.5978 60.914 8.65325 61.3447C8.6633 61.4267 8.51808 61.442 8.5081 61.3603Z" fill="white"/>
<path d="M1.63186 58.2874C1.76684 58.1837 1.87309 58.0472 1.94052 57.8909C2.00795 57.7346 2.03432 57.5636 2.01715 57.3943C2.00593 57.3124 2.15116 57.2973 2.16231 57.3786C2.18044 57.5658 2.15111 57.7545 2.07703 57.9273C2.00295 58.1001 1.8865 58.2515 1.73846 58.3674C1.72511 58.3805 1.7077 58.3888 1.68907 58.3908C1.67043 58.3928 1.65166 58.3885 1.63582 58.3785C1.62894 58.3732 1.62331 58.3664 1.61931 58.3587C1.61531 58.351 1.61304 58.3425 1.61267 58.3339C1.61229 58.3252 1.61381 58.3166 1.61713 58.3085C1.62044 58.3005 1.62547 58.2933 1.63186 58.2874Z" fill="white"/>
<path d="M9.3375 49.8545C9.34616 49.9053 9.35481 49.9561 9.36456 50.0073C9.48467 50.6885 9.66818 51.3569 9.9127 52.0039C9.93068 52.0543 9.94977 52.105 9.96939 52.1546C10.5877 53.7212 11.528 55.1405 12.7295 56.3207C13.2189 56.8029 13.7468 57.2444 14.308 57.6409C15.0902 58.1944 15.9929 58.7352 16.4879 59.4809C16.5404 59.5578 16.5874 59.6383 16.6286 59.7218L14.3985 64.2341C14.3878 64.2425 14.3782 64.2513 14.3676 64.2598L14.2875 64.4429C14.2565 64.4242 14.2248 64.4041 14.1938 64.3854C14.1758 64.3746 14.1582 64.3628 14.1402 64.352C14.1283 64.3445 14.1165 64.3369 14.1052 64.3308C14.1013 64.3283 14.0973 64.3258 14.0945 64.3237C14.0832 64.3175 14.0736 64.3107 14.0635 64.3049C13.8862 64.1933 13.7096 64.0803 13.5337 63.9659C13.5325 63.9656 13.5325 63.9656 13.5319 63.9642C12.1942 63.0895 10.9361 62.1011 9.90246 60.9607C9.87137 60.9264 9.83914 60.8917 9.80908 60.8554C9.34962 60.3429 8.93813 59.7893 8.57977 59.2017C8.38669 58.8821 8.21226 58.5516 8.05734 58.2119C7.65979 57.3343 7.42424 56.392 7.36205 55.4305C7.23609 53.5046 7.8074 51.5131 9.22777 49.9714C9.26414 49.932 9.30002 49.8935 9.3375 49.8545Z" fill="#979797"/>
<path d="M9.39452 49.8853C8.77333 52.2674 8.98737 54.7797 10.0391 56.9175C10.2579 57.3922 10.5592 57.8243 10.9291 58.1936C11.3253 58.5567 11.8124 58.8059 12.3387 58.9147C12.8429 59.0341 13.3789 59.1027 13.8315 59.3321C14.0535 59.4433 14.2461 59.6055 14.3935 59.8053C14.5409 60.0052 14.6389 60.2372 14.6795 60.4822C14.7902 61.0794 14.6498 61.6944 14.4893 62.2932C14.3112 62.9581 14.1146 63.6471 14.2789 64.306C14.2989 64.3859 14.1559 64.4191 14.136 64.3394C13.85 63.193 14.6018 62.0338 14.5731 60.874C14.5597 60.3329 14.3625 59.8055 13.86 59.5056C13.4206 59.2434 12.8679 59.1721 12.356 59.0553C11.8387 58.9549 11.3539 58.7293 10.9439 58.3984C10.5533 58.0499 10.2327 57.6302 9.99919 57.1617C9.46402 56.1295 9.12007 55.0089 8.98397 53.8542C8.82064 52.5145 8.91367 51.1558 9.2581 49.8508C9.27955 49.7686 9.41584 49.8035 9.39452 49.8853Z" fill="white"/>
<path d="M9.65457 56.2418C8.73713 56.5292 7.76386 56.1854 7.37918 55.4423C7.34129 55.3691 7.47227 55.3035 7.51022 55.3768C7.87059 56.073 8.77127 56.3852 9.62887 56.1165C9.71913 56.0883 9.74431 56.2137 9.65457 56.2418Z" fill="white"/>
<path d="M12.0714 58.885C12.3063 58.5306 12.4667 58.1321 12.5429 57.7139C12.6191 57.2956 12.6095 56.8662 12.5148 56.4517C12.4952 56.3718 12.6382 56.3385 12.6577 56.4183C12.7554 56.8499 12.7644 57.2969 12.6841 57.7321C12.6038 58.1673 12.436 58.5816 12.1907 58.95C12.1426 59.025 12.0236 58.9596 12.0714 58.885Z" fill="white"/>
<path d="M9.00337 52.5713C9.18351 52.551 9.35694 52.4911 9.5113 52.3961C9.66567 52.301 9.79718 52.1731 9.89647 52.0214C9.94347 51.946 10.0624 52.0115 10.0157 52.0864C9.90535 52.2536 9.75993 52.3947 9.58955 52.5001C9.41918 52.6055 9.22793 52.6725 9.02907 52.6966C8.98958 52.7013 8.95274 52.6874 8.94473 52.6506C8.94253 52.6324 8.94738 52.6141 8.95828 52.5993C8.96919 52.5846 8.98532 52.5746 9.00337 52.5713Z" fill="white"/>
<path d="M16.0261 19.6499L19.8218 23.6804L28.6565 26.9188L29.7181 24.9466L22.9195 21.3314C22.9195 21.3314 19.8544 18.129 18.036 17.4694L16.0261 19.6499Z" fill="#A0616A"/>
<path d="M29.5734 27.4233C30.2969 27.4233 30.8834 26.8368 30.8834 26.1133C30.8834 25.3899 30.2969 24.8034 29.5734 24.8034C28.85 24.8034 28.2635 25.3899 28.2635 26.1133C28.2635 26.8368 28.85 27.4233 29.5734 27.4233Z" fill="#A0616A"/>
<path d="M18.9715 17.6934L16.2585 20.0889L16.2457 20.0921C14.9843 20.4141 13.1626 18.9264 11.8564 17.6216C11.4261 17.191 11.1753 16.6131 11.1548 16.0047C11.1343 15.3963 11.3455 14.8028 11.7458 14.3441C12.0434 14.0078 12.4291 13.7614 12.8594 13.6328C13.2897 13.5043 13.7473 13.4986 14.1807 13.6165L16.3858 14.2248L18.9715 17.6934Z" fill="#3F3D56"/>
<path d="M22.0056 65.2734L23.8753 65.2732L24.7648 58.0614L22.0052 58.0615L22.0056 65.2734Z" fill="#A0616A"/>
<path d="M21.5286 64.6629L22.0549 64.6629L24.1096 63.8273L25.2108 64.6627H25.2109C25.8333 64.6628 26.4301 64.91 26.8702 65.35C27.3102 65.7901 27.5575 66.3869 27.5575 67.0093V67.0855L21.5287 67.0857L21.5286 64.6629Z" fill="#2F2E41"/>
<path d="M13.7093 65.2734L15.579 65.2732L16.4684 58.0614L13.7089 58.0615L13.7093 65.2734Z" fill="#A0616A"/>
<path d="M13.2323 64.6629L13.7586 64.6629L15.8132 63.8273L16.9145 64.6627H16.9146C17.537 64.6628 18.1338 64.91 18.5739 65.35C19.0139 65.7901 19.2612 66.3869 19.2612 67.0093V67.0855L13.2324 67.0857L13.2323 64.6629Z" fill="#2F2E41"/>
<path d="M10.8583 34.2094C10.8583 34.2094 10.6399 36.8293 11.1857 39.3401C11.7315 41.8508 11.7315 48.9219 11.7315 48.9219L12.9323 62.7008L16.5347 62.3733L17.5172 39.3401L21.0104 47.0906L20.6829 48.1822L21.1191 48.4551C21.1191 48.4551 20.792 50.5838 21.0104 50.5838C21.2287 50.5838 21.7745 50.9113 21.7745 50.9113L21.3378 62.155L25.0494 62.0459L26.3593 46.2173L24.9402 37.1568L24.831 35.4102L24.3398 35.4304L24.0897 34.7007L23.6302 33.4453L10.8583 34.2094Z" fill="#2F2E41"/>
<path d="M10.6696 34.7597L10.6501 34.7325C9.61106 33.2777 11.1738 29.7821 11.4095 29.2753L10.4168 28.9532L10.6403 27.0529L10.7462 26.2057L9.98748 25.447L9.98535 25.4281L9.5487 21.6074L8.91382 19.0697C8.6746 18.1104 8.69499 17.1047 8.97289 16.1558C9.25078 15.207 9.77617 14.3492 10.4951 13.6705L11.9626 12.2868L13.7461 9.64792H16.6222L17.6083 11.5106C18.5644 11.7316 19.4127 12.281 20.0053 13.063C20.598 13.8451 20.8975 14.8103 20.8517 15.7905L20.6283 20.6758L21.5032 26.7584L21.5037 27.8592L22.4884 28.9535L22.2734 30.0286L23.0227 30.3497L23.3536 31.8937C23.4906 32.0744 24.3944 33.2796 24.3944 33.6091C24.3944 33.6585 24.3579 33.7063 24.2795 33.7594C23.6636 34.1765 20.2591 35.0268 18.7523 34.4238C17.1473 33.7821 10.767 34.7448 10.7027 34.7546L10.6696 34.7597Z" fill="#3F3D56"/>
<path d="M34.2556 67.0463C34.2557 67.0633 34.2524 67.0802 34.2459 67.0959C34.2394 67.1117 34.2299 67.126 34.2179 67.138C34.206 67.1501 34.1917 67.1597 34.176 67.1662C34.1603 67.1728 34.1435 67.1762 34.1265 67.1762H3.52859C3.49413 67.1762 3.46109 67.1626 3.43673 67.1382C3.41237 67.1138 3.39868 67.0808 3.39868 67.0463C3.39868 67.0119 3.41237 66.9788 3.43673 66.9545C3.46109 66.9301 3.49413 66.9164 3.52859 66.9164H34.1257C34.1601 66.9163 34.193 66.9299 34.2174 66.9541C34.2418 66.9783 34.2555 67.0112 34.2556 67.0456V67.0463Z" fill="#CCCCCC"/>
<path d="M15.5556 8.79605C17.6593 8.79605 19.3646 7.0907 19.3646 4.98706C19.3646 2.88341 17.6593 1.17807 15.5556 1.17807C13.452 1.17807 11.7466 2.88341 11.7466 4.98706C11.7466 7.0907 13.452 8.79605 15.5556 8.79605Z" fill="#A0616A"/>
<path d="M15.9205 8.85771C15.3307 8.85168 14.7424 8.79528 14.1621 8.68912C13.5876 8.55677 12.3201 7.57665 11.9746 6.99763C11.718 6.56743 11.5639 5.90201 11.4799 5.41958C11.3664 4.7811 11.3882 4.12592 11.5441 3.49643C11.6999 2.86695 11.9862 2.27721 12.3844 1.76541C12.5379 1.551 12.7465 1.38206 12.9881 1.27647C13.0095 1.26874 13.0315 1.26197 13.0536 1.25627C13.4039 1.17372 13.7215 0.988358 13.9656 0.723994C14.013 0.670472 14.0642 0.620435 14.1188 0.574269C14.3927 0.354975 14.7146 0.203612 15.0582 0.132556C15.6133 -0.000752394 16.4073 0.166297 17.4182 0.62949C17.9261 0.862206 18.4897 0.797283 18.9242 0.714718C18.9486 0.710663 18.9736 0.713057 18.9967 0.72166C19.0199 0.730263 19.0403 0.744778 19.0561 0.763757C19.2355 0.94107 19.4753 1.04392 19.7274 1.05164C19.8817 1.06241 20.0382 1.28041 20.2268 1.5643C20.2696 1.62874 20.3196 1.70395 20.3558 1.74984L20.363 1.66365L20.4479 1.76221C20.5813 1.9171 20.6733 2.10323 20.7154 2.30327C20.7575 2.50331 20.7483 2.71075 20.6887 2.90627C20.629 3.1018 20.5208 3.27904 20.3742 3.4215C20.2276 3.56397 20.0474 3.66702 19.8502 3.72106C19.6938 3.75838 19.534 3.77963 19.3733 3.78448C19.2758 3.79072 19.1751 3.79717 19.0783 3.8114C18.7673 3.86675 18.4761 4.00178 18.2329 4.2033C17.9898 4.40481 17.803 4.66594 17.6909 4.96118C17.6644 5.02941 17.6226 5.09064 17.5688 5.14015C17.5149 5.18966 17.4503 5.22613 17.3801 5.24673C17.3099 5.26734 17.2358 5.27153 17.1637 5.25899C17.0916 5.24644 17.0234 5.2175 16.9642 5.17439C16.8659 5.09363 16.7494 5.03786 16.6249 5.01183C16.5003 4.98581 16.3712 4.9903 16.2488 5.02493C16.1423 5.0806 16.0582 5.1712 16.0105 5.28152C15.9529 5.40432 15.86 5.50718 15.7437 5.57698C15.3472 5.76865 15.2971 6.66183 15.4184 7.41062C15.5354 8.13238 15.7898 8.65889 16.0371 8.69098C16.2275 8.71566 16.249 8.72979 16.2619 8.7639L16.2735 8.79444L16.2513 8.82216C16.2297 8.84689 16.1036 8.85771 15.9205 8.85771Z" fill="#2F2E41"/>
<path d="M34.6062 37.7359C38.3314 37.7359 41.3512 34.7161 41.3512 30.9909C41.3512 27.2657 38.3314 24.2458 34.6062 24.2458C30.881 24.2458 27.8611 27.2657 27.8611 30.9909C27.8611 34.7161 30.881 37.7359 34.6062 37.7359Z" fill="#FFAAF6"/>
<path d="M34.0174 33.6345C34.0028 33.6345 33.988 33.6342 33.9733 33.6335C33.8439 33.6272 33.7175 33.593 33.6026 33.5333C33.4876 33.4736 33.387 33.3897 33.3075 33.2874L32.2444 31.9208C32.0983 31.7324 32.0328 31.4938 32.0623 31.2573C32.0918 31.0207 32.214 30.8056 32.402 30.659L32.4401 30.6294C32.6285 30.4832 32.8671 30.4177 33.1037 30.4472C33.3403 30.4767 33.5555 30.5988 33.7022 30.7868C33.7499 30.8482 33.8103 30.8985 33.8793 30.9344C33.9483 30.9703 34.0243 30.9908 34.1019 30.9945C34.1797 30.9991 34.2575 30.9864 34.3298 30.9574C34.4021 30.9284 34.4671 30.8838 34.5201 30.8268L36.6786 28.5483C36.8427 28.3755 37.0687 28.2748 37.307 28.2683C37.5453 28.2619 37.7764 28.3502 37.9496 28.5139L37.9847 28.5471C38.1576 28.7112 38.2584 28.9372 38.2649 29.1755C38.2714 29.4138 38.183 29.645 38.0193 29.8183L34.6698 33.3538C34.5859 33.4425 34.4847 33.5132 34.3725 33.5614C34.2603 33.6097 34.1395 33.6346 34.0174 33.6345Z" fill="white"/>
<path d="M16.7979 19.79L19.4439 24.6531L27.1646 30.0317L28.6929 28.3943L23.0371 23.1692C23.0371 23.1692 20.8871 19.2926 19.2962 18.1922L16.7979 19.79Z" fill="#A0616A"/>
<path d="M28.2563 30.7959C28.9798 30.7959 29.5662 30.2094 29.5662 29.4859C29.5662 28.7625 28.9798 28.176 28.2563 28.176C27.5328 28.176 26.9464 28.7625 26.9464 29.4859C26.9464 30.2094 27.5328 30.7959 28.2563 30.7959Z" fill="#A0616A"/>
<path d="M17.0361 20.4383L15.3721 16.4448L15.974 14.2379C16.0937 13.805 16.3321 13.4143 16.6622 13.1099C16.9924 12.8054 17.4011 12.5994 17.8421 12.515C18.4408 12.4047 19.0591 12.5258 19.5719 12.8539C20.0847 13.182 20.4538 13.6926 20.6045 14.2824C21.0602 16.0715 21.4102 18.3974 20.4898 19.3179L20.4804 19.3272L17.0361 20.4383Z" fill="#3F3D56"/>
<path d="M54.1473 12.4448C54.1413 12.4448 54.1352 12.4446 54.1292 12.4444C54.076 12.4418 54.0239 12.4277 53.9767 12.4031C53.9294 12.3786 53.888 12.3441 53.8553 12.302L53.4179 11.7398C53.3578 11.6623 53.3309 11.5641 53.343 11.4668C53.3552 11.3695 53.4054 11.281 53.4828 11.2207L53.4984 11.2085C53.5759 11.1484 53.6741 11.1214 53.7714 11.1335C53.8688 11.1457 53.9573 11.1959 54.0176 11.2732C54.0373 11.2985 54.0621 11.3192 54.0905 11.334C54.1189 11.3487 54.1501 11.3572 54.1821 11.3587C54.2141 11.3606 54.2461 11.3554 54.2758 11.3434C54.3056 11.3315 54.3323 11.3132 54.3541 11.2897L55.2421 10.3523C55.3096 10.2812 55.4026 10.2398 55.5006 10.2372C55.5987 10.2345 55.6937 10.2708 55.765 10.3382L55.7795 10.3518C55.8506 10.4194 55.892 10.5123 55.8947 10.6104C55.8974 10.7084 55.861 10.8035 55.7937 10.8748L54.4157 12.3293C54.3812 12.3658 54.3396 12.3949 54.2934 12.4147C54.2473 12.4346 54.1975 12.4448 54.1473 12.4448Z" fill="white"/>
<path d="M74.9905 53.5353C75.771 54.065 76.6384 54.6611 76.8899 55.628C76.9478 55.8345 76.9632 56.0506 76.9354 56.2633C76.9075 56.4759 76.8369 56.6807 76.7279 56.8654C76.5276 57.1992 76.2293 57.4615 75.9382 57.7142C75.5925 58.0145 75.244 58.3096 74.9757 58.6845C74.8529 58.8562 75.1368 59.0199 75.2585 58.8498C75.7558 58.1547 76.5823 57.761 77.02 57.0152C77.5376 56.133 77.1922 55.0869 76.5507 54.3728C76.1504 53.9271 75.6484 53.5868 75.1558 53.2525C74.981 53.1338 74.8169 53.4174 74.9905 53.5353Z" fill="#9A8D95"/>
<path d="M77.7196 53.5353C78.5 54.065 79.3675 54.6611 79.619 55.628C79.6768 55.8345 79.6923 56.0506 79.6644 56.2633C79.6366 56.4759 79.566 56.6807 79.457 56.8654C79.2567 57.1992 78.9583 57.4615 78.6673 57.7142C78.3215 58.0145 77.973 58.3096 77.7048 58.6845C77.5819 58.8562 77.8658 59.0199 77.9876 58.8498C78.4849 58.1547 79.3114 57.761 79.749 57.0152C80.2667 56.133 79.9213 55.0869 79.2798 54.3728C78.8794 53.9271 78.3774 53.5868 77.8849 53.2525C77.71 53.1338 77.546 53.4174 77.7196 53.5353Z" fill="#9A8D95"/>
<path d="M51.7422 29.5363C51.9158 29.4185 51.7518 29.1349 51.5769 29.2536C51.0844 29.5879 50.5824 29.9282 50.1821 30.3739C49.5406 31.088 49.1951 32.1341 49.7128 33.0163C50.1505 33.7621 50.9769 34.1558 51.4743 34.8509C51.596 35.021 51.8799 34.8573 51.757 34.6856C51.4888 34.3107 51.1403 34.0156 50.7945 33.7153C50.5035 33.4626 50.2051 33.2003 50.0049 32.8665C49.8958 32.6818 49.8252 32.477 49.7974 32.2644C49.7695 32.0517 49.785 31.8356 49.8428 31.6291C50.0943 30.6622 50.9618 30.0661 51.7422 29.5363Z" fill="#9A8D95"/>
<path d="M49.0132 29.5363C49.1868 29.4185 49.0228 29.1349 48.8479 29.2536C48.3554 29.5879 47.8534 29.9282 47.4531 30.3739C46.8116 31.088 46.4661 32.1341 46.9838 33.0163C47.4215 33.7621 48.2479 34.1558 48.7453 34.8509C48.867 35.021 49.1509 34.8573 49.028 34.6856C48.7598 34.3107 48.4113 34.0156 48.0655 33.7153C47.7745 33.4626 47.4761 33.2003 47.2758 32.8665C47.1668 32.6818 47.0962 32.477 47.0684 32.2644C47.0405 32.0517 47.056 31.8356 47.1138 31.6291C47.3653 30.6622 48.2328 30.0661 49.0132 29.5363Z" fill="#9A8D95"/>
</g>
<defs>
<clipPath id="clip0_60_14077">
<rect width="80" height="67.0881" fill="white" transform="translate(0 0.0881348)"/>
</clipPath>
</defs>
</svg>
