<svg width="81" height="61" viewBox="0 0 81 61" fill="none" xmlns="http://www.w3.org/2000/svg">
<g clip-path="url(#clip0_38_6480)">
<path d="M49.1271 18.3941C49.2266 18.3987 49.3251 18.3726 49.4093 18.3193C49.4935 18.266 49.5593 18.1881 49.5977 18.0961C49.6361 18.0042 49.6454 17.9027 49.6242 17.8053C49.603 17.708 49.5524 17.6195 49.4792 17.5519C49.467 17.5032 49.4582 17.4682 49.446 17.4195C49.4503 17.4089 49.4547 17.3983 49.4592 17.3877C49.9066 16.3209 51.4228 16.3283 51.8664 17.3966C52.2601 18.3449 52.7613 19.2947 52.8847 20.2973C52.9391 20.7405 52.9162 21.1897 52.817 21.625C53.7417 19.6079 54.2218 17.4155 54.2249 15.1965C54.2251 14.6397 54.1942 14.0833 54.1323 13.5299C54.0811 13.0763 54.0101 12.6259 53.9193 12.1787C53.4236 9.75226 52.3595 7.47802 50.8143 5.54272C50.0664 5.13465 49.4616 4.50713 49.0813 3.74473C48.9435 3.47067 48.8462 3.17811 48.7922 2.87616C48.8766 2.88723 49.1103 1.60234 49.0467 1.52351C49.1643 1.3451 49.3747 1.25641 49.5031 1.08232C50.1418 0.216485 51.0216 0.367666 51.4809 1.54427C52.4621 2.03949 52.4716 2.86078 51.8696 3.65067C51.4865 4.15321 51.4339 4.8332 51.0978 5.3712C51.1324 5.41546 51.1684 5.45834 51.2029 5.50261C51.835 6.31536 52.3859 7.18811 52.8477 8.10833C52.7171 7.08772 52.91 5.85815 53.2388 5.06556C53.6132 4.16248 54.3148 3.40191 54.9327 2.62121C55.6749 1.68346 57.1968 2.09271 57.3276 3.28145C57.3289 3.29296 57.3301 3.30447 57.3313 3.31597C57.2395 3.36774 57.1497 3.4227 57.0618 3.48084C56.9514 3.55462 56.8658 3.66003 56.8163 3.78327C56.7668 3.90651 56.7557 4.04183 56.7844 4.17149C56.8132 4.30115 56.8804 4.41911 56.9773 4.50992C57.0742 4.60072 57.1963 4.66013 57.3275 4.68037L57.341 4.68244C57.3083 5.01322 57.2505 5.34103 57.1681 5.66304C57.9608 8.72855 56.2494 9.84508 53.8059 9.89523C53.7519 9.92289 53.6994 9.95055 53.6454 9.97684C54.1094 11.2917 54.4004 12.6614 54.5112 14.0514C54.5739 14.8714 54.5702 15.6952 54.5002 16.5146L54.5043 16.4856C54.6814 15.5744 55.1674 14.7522 55.8805 14.1578C56.9395 13.2879 58.4357 12.9675 59.5782 12.2683C60.1282 11.9317 60.8329 12.3666 60.7369 13.0043C60.7354 13.0144 60.7338 13.0246 60.7323 13.0348C60.5619 13.1042 60.3961 13.1841 60.2357 13.2741C60.144 13.3258 60.0541 13.3808 59.9662 13.4389C59.8558 13.5127 59.7702 13.6181 59.7207 13.7414C59.6713 13.8646 59.6601 13.9999 59.6889 14.1296C59.7176 14.2593 59.7848 14.3772 59.8817 14.468C59.9786 14.5588 60.1007 14.6182 60.232 14.6385L60.2454 14.6405C60.2551 14.6419 60.2634 14.6433 60.2731 14.6447C59.9821 15.3395 59.5736 15.9791 59.0657 16.5353C58.57 19.2114 56.4412 19.4653 54.1641 18.686H54.1627C53.9128 19.7717 53.5508 20.8285 53.0825 21.8394H49.2238C49.2099 21.7965 49.1975 21.7523 49.185 21.7094C49.5422 21.7319 49.9008 21.7105 50.2528 21.6458C49.9665 21.2945 49.6802 20.9404 49.3939 20.5891C49.3875 20.5826 49.3815 20.5756 49.3759 20.5684C49.2307 20.3886 49.0841 20.2102 48.9388 20.0304L48.9388 20.0301C48.931 19.479 48.9943 18.9292 49.1269 18.3942L49.1271 18.3941Z" fill="#F2F2F2"/>
<path d="M61.5163 8.51869C60.7988 5.90279 66.5857 3.65959 68.1053 5.76619C68.3167 5.46669 69.0976 5.28478 69.4559 5.37665C69.8142 5.46852 70.1155 5.6982 70.4095 5.92054C70.8137 6.23107 71.2327 6.55262 71.4807 6.99912C71.7306 7.44378 71.7692 8.05015 71.433 8.43601C71.1665 8.74286 70.3801 8.9413 69.9795 9.02215C69.7003 9.07911 69.4651 9.12505 69.2629 9.15812C69.0793 8.89362 68.9948 8.5729 69.0241 8.25226C68.888 8.34403 68.774 8.46477 68.6901 8.60582C68.6062 8.74687 68.5546 8.90474 68.539 9.06809C68.5335 9.13607 70.7972 17.4652 70.7972 17.4652C70.5252 17.62 70.2391 17.7486 69.9428 17.8492C69.3566 16.9533 68.9076 15.9748 68.6106 14.9461C68.5424 15.6339 68.551 16.3273 68.6364 17.0132C68.6818 17.3979 68.7468 17.7799 68.8311 18.1579C66.1411 18.7386 62.0951 18.5475 60.3348 16.078C60.3345 16.0677 60.3342 16.0575 60.3339 16.0473C60.3325 15.9498 60.2973 15.8558 60.2343 15.7815C60.1712 15.7071 60.0843 15.657 59.9884 15.6397C59.8924 15.6223 59.7935 15.6389 59.7084 15.6865C59.6233 15.7342 59.5575 15.8099 59.5221 15.9007C59.4794 16.0097 59.4401 16.104 59.405 16.179C58.8924 14.3452 59.5557 12.223 61.5163 8.51869Z" fill="#2F2E41"/>
<path d="M56.9387 52.3752V52.4609C56.9353 52.4325 56.9353 52.4037 56.9387 52.3752Z" fill="#2F2E41"/>
<path d="M59.573 37.571C59.6414 37.5524 59.711 37.5389 59.7814 37.5305C59.7006 37.5436 59.6312 37.5571 59.573 37.571Z" fill="#2F2E41"/>
<path d="M59.5121 37.5865C59.5306 37.5813 59.5511 37.5762 59.573 37.571C59.5527 37.5763 59.533 37.5802 59.5121 37.5865Z" fill="#2F2E41"/>
<path d="M78.9747 60.9471H69.1145C68.9738 60.8349 68.8761 60.6776 68.8376 60.5018C68.7992 60.326 68.8224 60.1423 68.9034 59.9815C69.1727 59.3638 68.6449 58.7993 68.6449 58.7993C68.4657 58.5893 68.3411 58.3384 68.2822 58.0688C68.2232 57.7991 68.2317 57.5191 68.307 57.2536C68.5682 56.3411 67.5444 53.7657 67.5444 53.7657C67.5444 53.7657 66.9925 57.0912 66.3162 60.9471H56.9387C56.7816 60.6796 56.6988 60.3749 56.6988 60.0646C56.6988 59.7543 56.7816 59.4497 56.9387 59.1821C57.4852 58.2555 56.9387 58.0777 56.9387 58.0777C56.9387 58.0777 56.3922 57.0408 56.9387 56.288C57.4852 55.5351 56.9387 52.4609 56.9387 52.4609C56.9593 52.5968 57.115 52.3497 57.3547 51.8316C57.7196 51.0432 58.2773 49.6256 58.8407 47.9797C59.2435 46.8051 59.6496 45.5126 59.989 44.249H59.9898C60.0788 43.917 60.1631 43.5881 60.2427 43.2621C60.3984 42.6229 60.5319 42.0018 60.6332 41.4186C60.8531 40.1624 60.9256 39.0833 60.7567 38.3814C60.6167 37.7974 60.3103 37.4753 59.7814 37.5305C60.0648 37.4835 60.48 37.4391 60.9915 37.397C61.0838 37.3896 61.1793 37.3822 61.2782 37.374C65.0938 37.0857 73.2802 36.9201 73.2802 36.9201L75.7877 41.4103L78.9632 47.0983C78.9632 47.0983 78.8767 54.7287 78.9747 60.9471Z" fill="#2F2E41"/>
<path d="M68.4503 17.5125L62.6733 16.287L61.5263 18.5959L57.6636 20.8322C57.6636 20.8322 60.1534 31.0127 60.1392 32.4446C60.1032 36.0798 54.2866 44.2289 58.6801 43.602C63.0735 42.9751 63.9659 40.3491 65.3763 40.7643C66.6483 41.1388 68.2015 42.8046 69.2413 41.6132C70.2811 40.4218 70.6473 41.7976 71.3048 41.8452C71.6173 41.8678 71.4291 40.3407 72.2153 41.8926C73.0015 43.4445 77.1704 41.3555 75.7574 39.9425C73.4042 37.5893 72.9259 20.2422 72.9259 20.2422L70.3063 19.4361L68.4503 17.5125Z" fill="#E6E6E6"/>
<path d="M57.5543 54.4839C57.7865 54.2071 57.9014 53.8507 57.8747 53.4904C57.8481 53.1302 57.6819 52.7946 57.4115 52.555C57.3558 52.5071 57.2962 52.464 57.2334 52.426L58.1993 47.6855L55.9664 46.3491L55.3453 52.986C55.2078 53.2588 55.1646 53.5693 55.2223 53.8693C55.2799 54.1692 55.4352 54.4416 55.664 54.6439C55.7953 54.7578 55.9477 54.8448 56.1125 54.8998C56.2774 54.9548 56.4515 54.9767 56.6248 54.9645C56.7982 54.9522 56.9674 54.9059 57.1229 54.8282C57.2784 54.7505 57.417 54.6429 57.5309 54.5117C57.5389 54.5025 57.5467 54.4933 57.5543 54.4839Z" fill="#A0616A"/>
<path d="M64.4876 29.4965C64.4735 29.3441 64.2791 29.2749 64.0098 29.1793C63.7392 29.096 63.4821 28.9742 63.2462 28.8177C62.6498 28.3869 62.8845 27.9363 63.2091 27.3135C63.2725 27.1925 63.3384 27.0664 63.4002 26.9354C63.5839 26.5475 63.2915 24.9469 62.5295 22.1775C62.2947 21.3249 62.2956 20.7227 62.1333 20.3232C61.9718 19.9237 61.6481 19.7268 60.7659 19.6856C59.6995 19.6318 58.6553 20.003 57.8622 20.7178C57.8407 20.7367 57.8185 20.7573 57.7971 20.7771C57.7567 20.815 57.7172 20.8537 57.6785 20.8933C56.945 21.6312 56.5253 22.6241 56.5071 23.6643L56.503 23.8415L56.3209 32.303L55.8094 39.7282L55.1042 49.9567L55.6265 49.9822L57.7106 50.086L57.9635 50.0984L58.5632 47.5827L59.2848 44.5554L59.55 43.4433L60.3729 39.9935L60.7568 38.3814L60.9916 37.397L61.0871 36.995L61.5534 35.0411C61.5641 34.9999 62.6366 30.7683 63.873 30.0607C64.3343 29.7971 64.5007 29.6439 64.4876 29.4965Z" fill="#E6E6E6"/>
<path d="M78.3604 54.4335C78.0999 54.1832 77.9473 53.8412 77.9351 53.4802C77.923 53.1192 78.0521 52.7676 78.2952 52.5004C78.3455 52.4469 78.4001 52.3976 78.4585 52.353L76.989 47.7437L79.0655 46.1752L80.3958 52.707C80.5617 52.9634 80.6381 53.2676 80.613 53.572C80.5879 53.8763 80.4627 54.1638 80.257 54.3896C80.1387 54.5169 79.9965 54.6197 79.8385 54.6921C79.6805 54.7645 79.5098 54.805 79.3361 54.8115C79.1624 54.8179 78.9892 54.79 78.8263 54.7295C78.6634 54.6689 78.514 54.5769 78.3867 54.4586C78.3778 54.4504 78.369 54.442 78.3604 54.4335Z" fill="#A0616A"/>
<path d="M79.3762 44.4318C79.3762 44.4318 77.7567 38.7337 78.2506 38.1168C78.7445 37.4999 77.2858 37.3795 77.9144 36.2307C78.543 35.0818 77.6754 34.8897 77.6754 34.8897L77.2046 32.2483L76.3629 25.7603L76.3374 25.5674L76.0925 23.6798C76.0242 23.1407 75.8478 22.6209 75.5739 22.1515C75.3 21.6821 74.9343 21.2727 74.4987 20.9479C74.4764 20.9309 74.4537 20.9145 74.4309 20.8981C74.3273 20.8235 74.2214 20.7544 74.1133 20.6908C73.3054 20.2141 72.3566 20.0339 71.4301 20.1811C69.6845 20.453 70.2278 21.104 69.9446 22.848C69.4846 25.6836 69.3652 27.3059 69.5895 27.6724C69.6651 27.7959 69.7445 27.9139 69.8202 28.0273C70.21 28.6124 70.4918 29.0345 69.9448 29.5278C69.7268 29.7081 69.4843 29.8565 69.2245 29.9685C68.9675 30.093 68.7813 30.1823 68.7838 30.3354C68.7867 30.4836 68.9685 30.6175 69.4551 30.8298C70.0448 31.0878 70.6781 32.0635 71.1969 33.0602C71.6085 33.8636 71.9755 34.689 72.2965 35.5327L76.7552 48.0726L77.4824 50.1176L77.7333 50.0779L79.7934 49.7513L80.31 49.6696L79.3762 44.4318Z" fill="#E6E6E6"/>
<path d="M66.013 16.2004C68.616 16.2004 70.7261 14.0903 70.7261 11.4873C70.7261 8.88429 68.616 6.77414 66.013 6.77414C63.41 6.77414 61.2998 8.88429 61.2998 11.4873C61.2998 14.0903 63.41 16.2004 66.013 16.2004Z" fill="#A0616A"/>
<path d="M58.9439 8.88619C58.2264 6.27028 64.0133 4.02709 65.5329 6.13368C65.7443 5.83419 66.5252 5.65227 66.8835 5.74414C67.2418 5.83601 67.5431 6.0657 67.8371 6.28803C68.2414 6.59856 68.6603 6.92011 68.9083 7.36661C69.1582 7.81127 69.1968 8.41764 68.8606 8.8035C68.5941 9.11035 67.8077 9.3088 67.4071 9.38965C67.1279 9.44661 66.8927 9.49254 66.6905 9.52561C66.507 9.26111 66.4224 8.94039 66.4517 8.61975C66.3156 8.71152 66.2016 8.83226 66.1177 8.97331C66.0339 9.11436 65.9822 9.27223 65.9666 9.43558C65.9611 9.50356 68.2248 17.8327 68.2248 17.8327C67.9528 17.9875 67.6667 18.1161 67.3704 18.2167C66.7842 17.3208 66.3352 16.3423 66.0382 15.3136C65.97 16.0014 65.9786 16.6948 66.064 17.3807C66.1094 17.7653 66.1744 18.1474 66.2587 18.5254C63.5687 19.1061 59.5227 18.915 57.7624 16.4454C57.7621 16.4352 57.7618 16.425 57.7615 16.4148C57.7601 16.3173 57.7249 16.2233 57.6619 16.149C57.5988 16.0746 57.5119 16.0245 57.416 16.0072C57.32 15.9898 57.2211 16.0064 57.136 16.054C57.0509 16.1017 56.9851 16.1774 56.9497 16.2682C56.907 16.3772 56.8677 16.4715 56.8326 16.5465C56.32 14.7127 56.9833 12.5905 58.9439 8.88619Z" fill="#2F2E41"/>
<path d="M35.5695 25.1722C35.47 25.1767 35.3715 25.1506 35.2873 25.0973C35.2031 25.044 35.1373 24.9661 35.0989 24.8742C35.0604 24.7823 35.0512 24.6807 35.0724 24.5834C35.0936 24.486 35.1442 24.3975 35.2173 24.3299C35.2296 24.2812 35.2384 24.2462 35.2506 24.1975C35.2463 24.1869 35.2418 24.1763 35.2374 24.1657C34.79 23.099 33.2738 23.1063 32.8302 24.1747C32.4365 25.1229 31.9353 26.0727 31.8118 27.0753C31.7575 27.5185 31.7804 27.9677 31.8796 28.4031C30.9549 26.3859 30.4747 24.1936 30.4717 21.9746C30.4715 21.4178 30.5024 20.8614 30.5643 20.308C30.6155 19.8543 30.6865 19.4039 30.7773 18.9567C31.2729 16.5303 32.3371 14.2561 33.8823 12.3208C34.6302 11.9127 35.235 11.2852 35.6153 10.5228C35.753 10.2487 35.8504 9.95616 35.9043 9.6542C35.82 9.66527 35.5862 8.38039 35.6499 8.30156C35.5323 8.12315 35.3219 8.03446 35.1935 7.86037C34.5548 6.99453 33.675 7.14571 33.2157 8.32231C32.2344 8.81753 32.2249 9.63883 32.827 10.4287C33.2101 10.9313 33.2627 11.6112 33.5988 12.1492C33.5642 12.1935 33.5282 12.2364 33.4937 12.2807C32.8616 13.0934 32.3107 13.9662 31.8489 14.8864C31.9795 13.8658 31.7866 12.6362 31.4578 11.8436C31.0834 10.9405 30.3818 10.18 29.7639 9.39925C29.0217 8.4615 27.4998 8.87075 27.369 10.0595C27.3677 10.071 27.3665 10.0825 27.3653 10.094C27.4571 10.1458 27.5469 10.2007 27.6348 10.2589C27.7452 10.3327 27.8308 10.4381 27.8803 10.5613C27.9298 10.6846 27.9409 10.8199 27.9122 10.9495C27.8834 11.0792 27.8162 11.1972 27.7193 11.288C27.6224 11.3788 27.5003 11.4382 27.3691 11.4584L27.3556 11.4605C27.3883 11.7913 27.4461 12.1191 27.5285 12.4411C26.7358 15.5066 28.4472 16.6231 30.8907 16.6733C30.9447 16.7009 30.9972 16.7286 31.0512 16.7549C30.5872 18.0698 30.2961 19.4394 30.1854 20.8294C30.1227 21.6494 30.1264 22.4732 30.1964 23.2926L30.1923 23.2636C30.0152 22.3524 29.5292 21.5302 28.8161 20.9359C27.7571 20.0659 26.2609 19.7456 25.1184 19.0463C24.5684 18.7097 23.8637 19.1447 23.9597 19.7823C23.9612 19.7925 23.9627 19.8027 23.9643 19.8128C24.1346 19.8822 24.3005 19.9621 24.4608 20.0521C24.5526 20.1039 24.6425 20.1589 24.7304 20.217C24.8408 20.2908 24.9264 20.3962 24.9758 20.5194C25.0253 20.6427 25.0364 20.778 25.0077 20.9076C24.979 21.0373 24.9118 21.1553 24.8149 21.2461C24.7179 21.3369 24.5959 21.3963 24.4646 21.4165L24.4512 21.4186C24.4415 21.42 24.4332 21.4214 24.4235 21.4227C24.7145 22.1176 25.1229 22.7571 25.6309 23.3134C26.1266 25.9895 28.2554 26.2434 30.5325 25.4641H30.5339C30.7837 26.5498 31.1458 27.6066 31.6141 28.6175H35.4728C35.4867 28.5746 35.4991 28.5303 35.5116 28.4874C35.1544 28.5099 34.7958 28.4885 34.4438 28.4238C34.7301 28.0725 35.0164 27.7185 35.3027 27.3672C35.3091 27.3606 35.3151 27.3537 35.3207 27.3464C35.4659 27.1666 35.6125 26.9882 35.7577 26.8084L35.7578 26.8082C35.7656 26.2571 35.7023 25.7072 35.5696 25.1722L35.5695 25.1722Z" fill="#F2F2F2"/>
<path d="M17.5644 5.7663C17.4768 5.97039 14.7764 5.94852 14.6527 6.13026C13.6991 7.53332 17.1366 13.503 16.183 14.9079L16.0501 15.0662C16.3612 14.9228 16.6601 14.7543 16.9437 14.5621C16.9691 13.9871 16.9946 13.4102 17.0219 12.8351C17.3075 13.2005 17.5381 13.6058 17.7062 14.038C17.9282 13.8815 18.1103 13.5914 19.0619 13.0208C19.4472 12.5976 19.8913 12.232 20.3806 11.9352L17.5644 5.7663Z" fill="#2F2E41"/>
<path d="M19.5252 17.2652C19.2272 17.071 18.8872 16.9508 18.5335 16.9144C18.1797 16.878 17.8223 16.9264 17.491 17.0558C17.1597 17.1851 16.8641 17.3916 16.6286 17.6581C16.3931 17.9246 16.2245 18.2434 16.1369 18.5881L12.0332 29.2806L4.97948 25.276C4.94851 24.8157 4.77256 24.377 4.47687 24.0229C4.18117 23.6688 3.78093 23.4174 3.33354 23.3048C2.88614 23.1923 2.41459 23.2243 1.98651 23.3962C1.55842 23.5682 1.1958 23.8714 0.950654 24.2622C0.705506 24.653 0.590425 25.1114 0.621916 25.5717C0.653408 26.0319 0.829854 26.4704 1.12595 26.8242C1.42204 27.178 1.82257 27.4289 2.27009 27.541C2.71761 27.6531 3.18913 27.6205 3.61702 27.4481C5.10247 29.0335 11.5425 35.5336 14.2086 32.9939C16.4496 30.8591 19.6836 22.5854 20.4621 19.7283C20.5868 19.2714 20.5632 18.7868 20.3949 18.3441C20.2265 17.9015 19.922 17.5237 19.5252 17.2652Z" fill="#FFB6B6"/>
<path d="M11.8197 33.442L13.1147 39.2951L22.5841 40.1516L23.4544 35.0551L11.8197 33.442Z" fill="#FFB6B6"/>
<path d="M26.2843 48.4517C26.28 48.5356 26.2748 48.6186 26.2688 48.7025C26.1779 49.9153 26.0741 51.3141 25.9617 52.8469C25.7843 55.2794 25.5863 58.0493 25.3864 60.9471H5.52429L9.37634 49.369C9.37634 49.369 10.9317 48.5126 10.1399 47.0741C9.348 45.6355 10.9061 46.7819 10.9206 44.7274C10.9351 42.6729 12.3313 40.4873 12.3313 40.4873L12.5605 37.3766L12.6911 37.3792L23.0275 37.5513L23.2161 37.5548L23.5335 40.2252C25.4611 42.5189 26.4445 45.4598 26.2843 48.4517Z" fill="#2F2E41"/>
<path d="M17.7298 14.4286L22.4432 14.1858L24.6324 17.645C24.6324 17.645 28.7515 18.3337 28.466 23.1875C28.1805 28.0414 23.4543 32.3007 23.4543 32.3007L23.6563 31.608L23.3054 32.6106L23.3504 33.1736L23.8291 33.7697L23.8784 34.3863L23.4543 35.3618C23.5094 35.4502 23.5387 35.5523 23.5388 35.6565C23.5388 35.7607 23.5097 35.8628 23.4547 35.9513C23.3996 36.0397 23.3209 36.111 23.2274 36.157C23.1339 36.203 23.0294 36.2219 22.9258 36.2115L16.1153 35.529C15.9603 35.1024 15.8358 34.5921 15.2143 35.4417L14.5728 35.3795L11.9058 35.1211L11.7488 34.5493C11.6596 34.2244 11.6457 33.8834 11.7082 33.5523C11.7706 33.2212 11.9078 32.9087 12.1092 32.6386C11.8776 31.9132 11.9382 31.126 12.2783 30.4447L12.2911 30.4192L12.5743 30.1831C12.5743 30.1831 9.4758 25.528 13.0328 22.0219L14.4604 19.595L16.0578 17.6461L17.7298 14.4286Z" fill="#8D418A"/>
<path d="M18.9029 12.3865C21.3714 12.3865 23.3725 10.3854 23.3725 7.91697C23.3725 5.44849 21.3714 3.44739 18.9029 3.44739C16.4344 3.44739 14.4333 5.44849 14.4333 7.91697C14.4333 10.3854 16.4344 12.3865 18.9029 12.3865Z" fill="#FFB6B6"/>
<path d="M22.2977 14.3557C21.9337 14.0516 21.6803 13.6358 21.577 13.1728C21.4943 13.7349 21.5159 14.3074 21.6407 14.8616C21.3987 15.0436 21.1639 15.2165 20.9419 15.373C20.7738 14.9407 20.5433 14.5355 20.2577 14.1701C20.2304 14.7451 20.2049 15.322 20.1794 15.8971C19.8958 16.0892 19.597 16.2578 19.2859 16.4012L19.4187 16.2428C20.3723 14.838 17.9047 12.252 18.8582 10.849C19.1258 10.4559 17.9174 7.34951 16.9966 7.20938C16.1777 7.08564 16.2123 7.32221 15.4188 7.49509C15.3364 7.15146 15.2085 6.82036 15.0385 6.51058C15.0838 6.85577 15.0733 7.20598 15.0076 7.54786C14.7255 7.55878 14.5036 7.37905 14.2032 7.33313C12.287 7.04014 12.4817 4.96741 13.0149 4.31045C13.5499 3.65533 15.326 3.45879 16.1449 3.24587C16.2195 3.17308 16.3888 3.21858 16.4634 3.14942C18.0328 1.71315 20.1317 1.47529 22.0206 2.11188C24.0349 2.79075 25.2908 4.10468 25.9354 6.13025L26.1203 7.75122C26.2861 8.27242 26.0775 10.6975 25.9354 11.2257C25.3831 13.2788 24.2068 12.2539 22.2977 14.3557Z" fill="#2F2E41"/>
<path d="M28.8147 35.5314L28.6387 21.8271C28.6295 21.2465 28.3925 20.6928 27.9786 20.2855C27.5648 19.8782 27.0074 19.6499 26.4268 19.6499C26.1264 19.6499 25.8291 19.711 25.5532 19.8297C25.2772 19.9483 25.0283 20.1219 24.8216 20.3398C24.6149 20.5578 24.4547 20.8156 24.3509 21.0975C24.2471 21.3793 24.2018 21.6794 24.2177 21.9794L24.8369 36.2092L24.8486 44.8717C24.4837 45.0264 24.1753 45.2898 23.9652 45.6259C23.7551 45.9621 23.6537 46.3548 23.6746 46.7506C23.6955 47.1465 23.8377 47.5263 24.082 47.8385C24.3262 48.1507 24.6607 48.3801 25.0399 48.4956C25.4191 48.6111 25.8247 48.607 26.2015 48.484C26.5783 48.361 26.9081 48.1249 27.1461 47.8079C27.3841 47.4909 27.5188 47.1083 27.5317 46.7121C27.5447 46.316 27.4354 45.9254 27.2187 45.5935L28.8147 35.5314Z" fill="#FFB6B6"/>
<path d="M51.8826 53.2616C51.8826 53.2616 51.6105 58.1561 51.4855 60.9475H42.1165C41.9237 58.4072 41.8587 56.5408 41.8587 56.5408L41.3461 60.9475H31.8759L31.2888 52.7862L34.1261 45.7532C34.1261 45.7532 49.5017 44.6869 50.928 46.0396C52.3533 47.3914 51.8826 53.2616 51.8826 53.2616Z" fill="#2F2E41"/>
<path d="M43.5977 12.0885C46.4241 12.0885 48.7153 9.79728 48.7153 6.97091C48.7153 4.14453 46.4241 1.8533 43.5977 1.8533C40.7713 1.8533 38.4801 4.14453 38.4801 6.97091C38.4801 9.79728 40.7713 12.0885 43.5977 12.0885Z" fill="#FFB6B6"/>
<path d="M49.5629 5.30799C49.0372 5.54767 48.6966 7.28359 48.2835 6.88003C47.8703 6.47646 47.8979 5.95128 47.3409 5.80235C46.8911 5.68156 46.407 5.81961 45.9967 6.03732C45.9234 6.07574 45.8524 6.11751 45.7832 6.15905C45.7375 6.12852 45.692 6.09979 45.6432 6.07328C45.2762 5.87688 44.8478 5.8287 44.4464 5.93866C44.7636 6.04492 45.0394 6.24821 45.2348 6.51978C45.0975 6.61181 44.9584 6.70407 44.8161 6.78581C43.6275 7.47171 41.9363 5.98026 40.6852 5.41995C41.4688 6.8905 41.083 7.49952 40.4026 9.02038L40.3791 9.10699C40.4177 8.72581 39.2382 8.44175 39.3066 8.97832C39.3552 9.35929 39.6849 10.2061 39.8695 10.5425C38.5542 9.02152 37.6553 7.16032 37.845 5.24034C37.8862 4.83701 37.8738 4.41146 38.0818 4.06139C38.2901 3.71313 38.7242 3.46874 39.1083 3.60155C39.0758 2.98924 39.2098 2.37956 39.4961 1.83733C39.7823 1.29509 40.2102 0.840566 40.7342 0.522072C41.2581 0.203578 41.8586 0.0330211 42.4718 0.0285333C43.0849 0.0240455 43.6878 0.185795 44.2164 0.496586C44.7075 0.784782 45.1176 1.19238 45.5677 1.54397C46.0179 1.89556 46.5368 2.20203 47.1076 2.23105C47.4697 2.24852 47.8638 2.16011 48.1749 2.34766C48.5353 2.56528 48.597 3.02091 48.651 3.45935C48.3296 3.49103 48.0249 3.61783 47.7759 3.82354C48.1085 3.78962 48.4433 3.86143 48.7327 4.02877C48.7382 4.03125 48.7434 4.03423 48.7484 4.03767C48.9389 4.76225 48.9194 4.92288 49.5629 5.30799Z" fill="#2F2E41"/>
<path d="M31.8987 48.2291C36.2568 43.1279 34.7847 36.6396 33.055 30.09L33.3842 20.4142C33.4003 19.9396 33.5304 19.4758 33.7635 19.062C33.9966 18.6483 34.3259 18.2967 34.7235 18.0369L39.1725 15.1304L40.9041 12.6267L45.6774 13.1041L48.3243 15.9033L51.2542 18.14C51.9899 18.7017 52.5496 19.4619 52.8675 20.3311C53.1853 21.2003 53.248 22.1423 53.0482 23.046L50.2444 35.7258C50.2444 35.7258 51.4171 42.2991 50.7016 43.025C49.986 43.751 48.1423 43.0254 49.6044 43.8403C51.359 44.8183 52.9544 44.6379 52.0665 45.5258C51.1785 46.4137 52.3023 47.6482 52.3023 47.6482L31.8987 48.2291Z" fill="#8D418A"/>
<path d="M33.7619 55.6429L34.4884 50.4667L31.5894 49.6391L31.016 55.1391C30.776 55.359 30.6022 55.6416 30.5141 55.9549C30.426 56.2683 30.427 56.6 30.517 56.9128C30.6071 57.2256 30.7826 57.5071 31.0238 57.7256C31.2651 57.9441 31.5625 58.091 31.8827 58.1498C32.2029 58.2085 32.5331 58.1768 32.8362 58.0582C33.1393 57.9395 33.4033 57.7387 33.5986 57.4783C33.7938 57.2178 33.9125 56.9081 33.9414 56.5838C33.9702 56.2596 33.9081 55.9338 33.7619 55.6429Z" fill="#FFB6B6"/>
<path d="M39.2812 16.0635C39.2812 16.0635 31.0293 18.7492 30.8325 20.7143C30.6357 22.6794 30.701 23.8824 29.8301 31.7459L29.876 52.9281C29.876 52.9281 35.4083 54.1126 34.841 52.8461C34.2736 51.5797 34.4716 50.9838 34.4716 50.9838C34.4716 50.9838 35.6577 50.5158 35.3608 49.0288C35.0639 47.5417 36.5529 40.1726 36.5529 40.1726L37.4927 26.9565L39.2812 16.0635Z" fill="#8D418A"/>
<path d="M49.4559 55.3688L49.0692 50.1562L52.0161 49.5199L52.2288 55.0455C52.4539 55.2807 52.6088 55.574 52.6763 55.8925C52.7438 56.2109 52.7211 56.5418 52.6108 56.8481C52.5005 57.1543 52.3069 57.4237 52.0519 57.626C51.7969 57.8283 51.4905 57.9554 51.1672 57.9931C50.8438 58.0308 50.5164 57.9776 50.2217 57.8394C49.927 57.7012 49.6767 57.4836 49.4989 57.2109C49.3211 56.9382 49.2228 56.6214 49.2152 56.296C49.2076 55.9706 49.291 55.6495 49.4559 55.3688Z" fill="#FFB6B6"/>
<path d="M46.5355 15.5132C46.5355 15.5132 54.5942 18.7326 54.6621 20.7064C54.73 22.6801 54.5862 23.8763 54.9413 31.7799L53.5109 52.9137C53.5109 52.9137 47.913 53.7341 48.5619 52.5074C49.2109 51.2808 49.0523 50.6733 49.0523 50.6733C49.0523 50.6733 47.8992 50.1287 48.2927 48.6642C48.6862 47.1998 47.6821 39.7491 47.6821 39.7491L47.6081 26.4999L46.5355 15.5132Z" fill="#8D418A"/>
</g>
<defs>
<clipPath id="clip0_38_6480">
<rect width="80" height="60.9073" fill="white" transform="translate(0.617676 0.0402222)"/>
</clipPath>
</defs>
</svg>
