<svg width="81" height="62" viewBox="0 0 81 62" fill="none" xmlns="http://www.w3.org/2000/svg">
<g clip-path="url(#clip0_60_14156)">
<path d="M49.1271 19.3014C49.2266 19.306 49.3251 19.2798 49.4093 19.2265C49.4935 19.1732 49.5593 19.0954 49.5977 19.0034C49.6361 18.9115 49.6454 18.81 49.6242 18.7126C49.603 18.6153 49.5524 18.5268 49.4792 18.4591C49.467 18.4104 49.4582 18.3755 49.446 18.3268C49.4503 18.3162 49.4547 18.3056 49.4592 18.295C49.9066 17.2282 51.4228 17.2356 51.8664 18.3039C52.2601 19.2522 52.7613 20.202 52.8847 21.2046C52.9391 21.6478 52.9162 22.097 52.817 22.5323C53.7417 20.5152 54.2218 18.3228 54.2249 16.1038C54.2251 15.547 54.1942 14.9906 54.1323 14.4372C54.0811 13.9836 54.0101 13.5332 53.9193 13.086C53.4236 10.6595 52.3595 8.38531 50.8143 6.45001C50.0664 6.04194 49.4616 5.41442 49.0813 4.65202C48.9435 4.37796 48.8462 4.0854 48.7922 3.78345C48.8766 3.79451 49.1103 2.50963 49.0467 2.4308C49.1643 2.25239 49.3747 2.1637 49.5031 1.98961C50.1418 1.12377 51.0216 1.27495 51.4809 2.45155C52.4621 2.94677 52.4716 3.76807 51.8696 4.55796C51.4865 5.0605 51.4339 5.74048 51.0978 6.27849C51.1324 6.32275 51.1684 6.36563 51.2029 6.4099C51.835 7.22265 52.3859 8.09539 52.8477 9.01561C52.7171 7.995 52.91 6.76544 53.2388 5.97285C53.6132 5.06977 54.3148 4.3092 54.9327 3.52849C55.6749 2.59074 57.1968 3 57.3276 4.18874C57.3289 4.20025 57.3301 4.21176 57.3313 4.22326C57.2395 4.27503 57.1497 4.32999 57.0618 4.38813C56.9514 4.46191 56.8658 4.56732 56.8163 4.69056C56.7668 4.8138 56.7557 4.94912 56.7844 5.07878C56.8132 5.20844 56.8804 5.3264 56.9773 5.41721C57.0742 5.50801 57.1963 5.56742 57.3275 5.58766L57.341 5.58973C57.3083 5.9205 57.2505 6.24832 57.1681 6.57033C57.9608 9.63584 56.2494 10.7524 53.8059 10.8025C53.7519 10.8302 53.6994 10.8578 53.6454 10.8841C54.1094 12.199 54.4004 13.5687 54.5112 14.9586C54.5739 15.7787 54.5702 16.6024 54.5002 17.4219L54.5043 17.3928C54.6814 16.4816 55.1674 15.6595 55.8805 15.0651C56.9395 14.1952 58.4357 13.8748 59.5782 13.1756C60.1282 12.8389 60.8329 13.2739 60.7369 13.9116C60.7354 13.9217 60.7338 13.9319 60.7323 13.9421C60.5619 14.0115 60.3961 14.0914 60.2357 14.1814C60.144 14.2331 60.0541 14.2881 59.9662 14.3462C59.8558 14.42 59.7702 14.5254 59.7207 14.6487C59.6713 14.7719 59.6601 14.9072 59.6889 15.0369C59.7176 15.1665 59.7848 15.2845 59.8817 15.3753C59.9786 15.4661 60.1007 15.5255 60.232 15.5458L60.2454 15.5478C60.2551 15.5492 60.2634 15.5506 60.2731 15.552C59.9821 16.2468 59.5736 16.8864 59.0657 17.4426C58.57 20.1187 56.4412 20.3726 54.1641 19.5933H54.1627C53.9128 20.679 53.5508 21.7358 53.0825 22.7467H49.2238C49.2099 22.7038 49.1975 22.6596 49.185 22.6167C49.5422 22.6391 49.9008 22.6178 50.2528 22.5531C49.9665 22.2018 49.6802 21.8477 49.3939 21.4964C49.3875 21.4898 49.3815 21.4829 49.3759 21.4757C49.2307 21.2959 49.0841 21.1174 48.9388 20.9377L48.9388 20.9374C48.931 20.3863 48.9943 19.8365 49.1269 19.3015L49.1271 19.3014Z" fill="#F2F2F2"/>
<path d="M61.5163 9.42598C60.7988 6.81007 66.5857 4.56688 68.1053 6.67348C68.3167 6.37398 69.0976 6.19206 69.4559 6.28394C69.8142 6.37581 70.1155 6.60549 70.4095 6.82783C70.8137 7.13835 71.2327 7.45991 71.4807 7.90641C71.7306 8.35107 71.7692 8.95743 71.433 9.34329C71.1665 9.65014 70.3801 9.84859 69.9795 9.92944C69.7003 9.9864 69.4651 10.0323 69.2629 10.0654C69.0793 9.8009 68.9948 9.48019 69.0241 9.15955C68.888 9.25132 68.774 9.37206 68.6901 9.51311C68.6062 9.65416 68.5546 9.81202 68.539 9.97538C68.5335 10.0434 70.7972 18.3725 70.7972 18.3725C70.5252 18.5273 70.2391 18.6559 69.9428 18.7565C69.3566 17.8606 68.9076 16.8821 68.6106 15.8534C68.5424 16.5412 68.551 17.2346 68.6364 17.9205C68.6818 18.3051 68.7468 18.6872 68.8311 19.0652C66.1411 19.6459 62.0951 19.4548 60.3348 16.9852C60.3345 16.975 60.3342 16.9648 60.3339 16.9546C60.3325 16.8571 60.2973 16.7631 60.2343 16.6888C60.1712 16.6144 60.0843 16.5643 59.9884 16.5469C59.8924 16.5296 59.7935 16.5462 59.7084 16.5938C59.6233 16.6415 59.5575 16.7172 59.5221 16.808C59.4794 16.917 59.4401 17.0113 59.405 17.0863C58.8924 15.2525 59.5557 13.1303 61.5163 9.42598Z" fill="#2F2E41"/>
<path d="M56.9387 53.2825V53.3682C56.9353 53.3397 56.9353 53.311 56.9387 53.2825Z" fill="#2F2E41"/>
<path d="M59.573 38.4783C59.6414 38.4597 59.711 38.4462 59.7814 38.4378C59.7006 38.4509 59.6312 38.4644 59.573 38.4783Z" fill="#2F2E41"/>
<path d="M59.5121 38.4938C59.5306 38.4886 59.5511 38.4834 59.573 38.4783C59.5527 38.4836 59.533 38.4875 59.5121 38.4938Z" fill="#2F2E41"/>
<path d="M78.9747 61.8544H69.1145C68.9738 61.7422 68.8761 61.5849 68.8376 61.4091C68.7992 61.2332 68.8224 61.0495 68.9034 60.8888C69.1727 60.271 68.6449 59.7065 68.6449 59.7065C68.4657 59.4966 68.3411 59.2457 68.2822 58.976C68.2232 58.7064 68.2317 58.4264 68.307 58.1608C68.5682 57.2484 67.5444 54.673 67.5444 54.673C67.5444 54.673 66.9925 57.9985 66.3162 61.8544H56.9387C56.7816 61.5869 56.6988 61.2822 56.6988 60.9719C56.6988 60.6616 56.7816 60.357 56.9387 60.0894C57.4852 59.1627 56.9387 58.985 56.9387 58.985C56.9387 58.985 56.3922 57.9481 56.9387 57.1952C57.4852 56.4424 56.9387 53.3682 56.9387 53.3682C56.9593 53.5041 57.115 53.257 57.3547 52.7388C57.7196 51.9505 58.2773 50.5329 58.8407 48.887C59.2435 47.7124 59.6496 46.4199 59.989 45.1563H59.9898C60.0788 44.8243 60.1631 44.4953 60.2427 44.1694C60.3984 43.5302 60.5319 42.9091 60.6332 42.3259C60.8531 41.0697 60.9256 39.9905 60.7567 39.2887C60.6167 38.7047 60.3103 38.3826 59.7814 38.4378C60.0648 38.3908 60.48 38.3463 60.9915 38.3043C61.0838 38.2969 61.1793 38.2895 61.2782 38.2813C65.0938 37.993 73.2802 37.8274 73.2802 37.8274L75.7877 42.3176L78.9632 48.0056C78.9632 48.0056 78.8767 55.636 78.9747 61.8544Z" fill="#2F2E41"/>
<path d="M68.4503 18.4197L62.6733 17.1943L61.5263 19.5032L57.6636 21.7395C57.6636 21.7395 60.1534 31.92 60.1392 33.3519C60.1032 36.9871 54.2866 45.1362 58.6801 44.5093C63.0735 43.8823 63.9659 41.2564 65.3763 41.6716C66.6483 42.0461 68.2015 43.7119 69.2413 42.5205C70.2811 41.3291 70.6473 42.7049 71.3048 42.7524C71.6173 42.775 71.4291 41.248 72.2153 42.7999C73.0015 44.3518 77.1704 42.2628 75.7574 40.8498C73.4042 38.4966 72.9259 21.1495 72.9259 21.1495L70.3063 20.3434L68.4503 18.4197Z" fill="#E6E6E6"/>
<path d="M57.5543 55.3912C57.7865 55.1144 57.9014 54.758 57.8747 54.3977C57.8481 54.0375 57.6819 53.7018 57.4115 53.4623C57.3558 53.4144 57.2962 53.3713 57.2334 53.3333L58.1993 48.5928L55.9664 47.2564L55.3453 53.8933C55.2078 54.166 55.1646 54.4766 55.2223 54.7765C55.2799 55.0765 55.4352 55.3489 55.664 55.5512C55.7953 55.6651 55.9477 55.7521 56.1125 55.807C56.2774 55.862 56.4515 55.884 56.6248 55.8717C56.7982 55.8595 56.9674 55.8131 57.1229 55.7355C57.2784 55.6578 57.417 55.5502 57.5309 55.419C57.5389 55.4098 57.5467 55.4005 57.5543 55.3912Z" fill="#A0616A"/>
<path d="M64.4876 30.4038C64.4735 30.2514 64.2791 30.1822 64.0098 30.0866C63.7392 30.0033 63.4821 29.8815 63.2462 29.725C62.6498 29.2942 62.8845 28.8436 63.2091 28.2208C63.2725 28.0997 63.3384 27.9737 63.4002 27.8427C63.5839 27.4547 63.2915 25.8542 62.5295 23.0848C62.2947 22.2322 62.2956 21.63 62.1333 21.2305C61.9718 20.831 61.6481 20.6341 60.7659 20.5929C59.6995 20.5391 58.6553 20.9103 57.8622 21.6251C57.8407 21.644 57.8185 21.6646 57.7971 21.6844C57.7567 21.7223 57.7172 21.761 57.6785 21.8006C56.945 22.5384 56.5253 23.5314 56.5071 24.5716L56.503 24.7487L56.3209 33.2103L55.8094 40.6355L55.1042 50.864L55.6265 50.8895L57.7106 50.9933L57.9635 51.0057L58.5632 48.4899L59.2848 45.4627L59.55 44.3506L60.3729 40.9008L60.7568 39.2887L60.9916 38.3043L61.0871 37.9023L61.5534 35.9484C61.5641 35.9072 62.6366 31.6756 63.873 30.968C64.3343 30.7044 64.5007 30.5512 64.4876 30.4038Z" fill="#E6E6E6"/>
<path d="M78.3604 55.3408C78.0999 55.0905 77.9473 54.7485 77.9351 54.3875C77.923 54.0264 78.0521 53.6749 78.2952 53.4077C78.3455 53.3541 78.4001 53.3049 78.4585 53.2603L76.989 48.651L79.0655 47.0825L80.3958 53.6143C80.5617 53.8707 80.6381 54.1749 80.613 54.4792C80.5879 54.7836 80.4627 55.0711 80.257 55.2969C80.1387 55.4242 79.9965 55.527 79.8385 55.5994C79.6805 55.6718 79.5098 55.7123 79.3361 55.7187C79.1624 55.7251 78.9892 55.6973 78.8263 55.6367C78.6634 55.5762 78.514 55.4842 78.3867 55.3659C78.3778 55.3576 78.369 55.3493 78.3604 55.3408Z" fill="#A0616A"/>
<path d="M79.3762 45.3391C79.3762 45.3391 77.7567 39.641 78.2506 39.0241C78.7445 38.4072 77.2858 38.2868 77.9144 37.1379C78.543 35.9891 77.6754 35.797 77.6754 35.797L77.2046 33.1556L76.3629 26.6676L76.3374 26.4747L76.0925 24.5871C76.0242 24.048 75.8478 23.5282 75.5739 23.0588C75.3 22.5894 74.9343 22.18 74.4987 21.8552C74.4764 21.8382 74.4537 21.8218 74.4309 21.8054C74.3273 21.7308 74.2214 21.6617 74.1133 21.5981C73.3054 21.1214 72.3566 20.9412 71.4301 21.0884C69.6845 21.3603 70.2278 22.0113 69.9446 23.7552C69.4846 26.5909 69.3652 28.2132 69.5895 28.5797C69.6651 28.7031 69.7445 28.8212 69.8202 28.9346C70.21 29.5197 70.4918 29.9418 69.9448 30.4351C69.7268 30.6154 69.4843 30.7638 69.2245 30.8758C68.9675 31.0003 68.7813 31.0896 68.7838 31.2426C68.7867 31.3909 68.9685 31.5248 69.4551 31.7371C70.0448 31.9951 70.6781 32.9708 71.1969 33.9675C71.6085 34.7708 71.9755 35.5962 72.2965 36.4399L76.7552 48.9798L77.4824 51.0249L77.7333 50.9852L79.7934 50.6586L80.31 50.5768L79.3762 45.3391Z" fill="#E6E6E6"/>
<path d="M66.013 17.1077C68.616 17.1077 70.7261 14.9976 70.7261 12.3946C70.7261 9.79157 68.616 7.68143 66.013 7.68143C63.41 7.68143 61.2998 9.79157 61.2998 12.3946C61.2998 14.9976 63.41 17.1077 66.013 17.1077Z" fill="#A0616A"/>
<path d="M58.9439 9.79347C58.2264 7.17756 64.0133 4.93437 65.5329 7.04097C65.7443 6.74147 66.5252 6.55956 66.8835 6.65143C67.2418 6.7433 67.5431 6.97298 67.8371 7.19532C68.2414 7.50585 68.6603 7.8274 68.9083 8.2739C69.1582 8.71856 69.1968 9.32493 68.8606 9.71079C68.5941 10.0176 67.8077 10.2161 67.4071 10.2969C67.1279 10.3539 66.8927 10.3998 66.6905 10.4329C66.507 10.1684 66.4224 9.84768 66.4517 9.52704C66.3156 9.61881 66.2016 9.73955 66.1177 9.8806C66.0339 10.0217 65.9822 10.1795 65.9666 10.3429C65.9611 10.4109 68.2248 18.74 68.2248 18.74C67.9528 18.8948 67.6667 19.0234 67.3704 19.124C66.7842 18.2281 66.3352 17.2496 66.0382 16.2209C65.97 16.9087 65.9786 17.602 66.064 18.288C66.1094 18.6726 66.1744 19.0547 66.2587 19.4327C63.5687 20.0134 59.5227 19.8223 57.7624 17.3527C57.7621 17.3425 57.7618 17.3323 57.7615 17.3221C57.7601 17.2246 57.7249 17.1306 57.6619 17.0563C57.5988 16.9819 57.5119 16.9318 57.416 16.9144C57.32 16.8971 57.2211 16.9137 57.136 16.9613C57.0509 17.009 56.9851 17.0847 56.9497 17.1755C56.907 17.2845 56.8677 17.3788 56.8326 17.4538C56.32 15.62 56.9833 13.4978 58.9439 9.79347Z" fill="#2F2E41"/>
<path d="M35.5695 26.0794C35.47 26.084 35.3715 26.0579 35.2873 26.0046C35.2031 25.9513 35.1373 25.8734 35.0989 25.7815C35.0604 25.6895 35.0512 25.588 35.0724 25.4907C35.0936 25.3933 35.1442 25.3048 35.2173 25.2372C35.2296 25.1885 35.2384 25.1535 35.2506 25.1048C35.2463 25.0942 35.2418 25.0836 35.2374 25.073C34.79 24.0062 33.2738 24.0136 32.8302 25.082C32.4365 26.0302 31.9353 26.98 31.8118 27.9826C31.7575 28.4258 31.7804 28.875 31.8796 29.3104C30.9549 27.2932 30.4747 25.1009 30.4717 22.8819C30.4715 22.325 30.5024 21.7686 30.5643 21.2153C30.6155 20.7616 30.6865 20.3112 30.7773 19.864C31.2729 17.4376 32.3371 15.1634 33.8823 13.2281C34.6302 12.82 35.235 12.1925 35.6153 11.4301C35.753 11.156 35.8504 10.8634 35.9043 10.5615C35.82 10.5726 35.5862 9.28768 35.6499 9.20884C35.5323 9.03043 35.3219 8.94175 35.1935 8.76765C34.5548 7.90182 33.675 8.053 33.2157 9.2296C32.2344 9.72482 32.2249 10.5461 32.827 11.336C33.2101 11.8385 33.2627 12.5185 33.5988 13.0565C33.5642 13.1008 33.5282 13.1437 33.4937 13.1879C32.8616 14.0007 32.3107 14.8734 31.8489 15.7937C31.9795 14.7731 31.7866 13.5435 31.4578 12.7509C31.0834 11.8478 30.3818 11.0872 29.7639 10.3065C29.0217 9.36879 27.4998 9.77804 27.369 10.9668C27.3677 10.9783 27.3665 10.9898 27.3653 11.0013C27.4571 11.0531 27.5469 11.108 27.6348 11.1662C27.7452 11.24 27.8308 11.3454 27.8803 11.4686C27.9298 11.5918 27.9409 11.7272 27.9122 11.8568C27.8834 11.9865 27.8162 12.1044 27.7193 12.1953C27.6224 12.2861 27.5003 12.3455 27.3691 12.3657L27.3556 12.3678C27.3883 12.6986 27.4461 13.0264 27.5285 13.3484C26.7358 16.4139 28.4472 17.5304 30.8907 17.5806C30.9447 17.6082 30.9972 17.6359 31.0512 17.6622C30.5872 18.9771 30.2961 20.3467 30.1854 21.7367C30.1227 22.5567 30.1264 23.3805 30.1964 24.1999L30.1923 24.1709C30.0152 23.2597 29.5292 22.4375 28.8161 21.8432C27.7571 20.9732 26.2609 20.6529 25.1184 19.9536C24.5684 19.617 23.8637 20.052 23.9597 20.6896C23.9612 20.6998 23.9627 20.71 23.9643 20.7201C24.1346 20.7895 24.3005 20.8694 24.4608 20.9594C24.5526 21.0112 24.6425 21.0661 24.7304 21.1243C24.8408 21.198 24.9264 21.3035 24.9758 21.4267C25.0253 21.5499 25.0364 21.6853 25.0077 21.8149C24.979 21.9446 24.9118 22.0625 24.8149 22.1534C24.7179 22.2442 24.5959 22.3036 24.4646 22.3238L24.4512 22.3259C24.4415 22.3273 24.4332 22.3286 24.4235 22.33C24.7145 23.0249 25.1229 23.6644 25.6309 24.2207C26.1266 26.8967 28.2554 27.1506 30.5325 26.3713H30.5339C30.7837 27.4571 31.1458 28.5139 31.6141 29.5247H35.4728C35.4867 29.4819 35.4991 29.4376 35.5116 29.3947C35.1544 29.4172 34.7958 29.3958 34.4438 29.3311C34.7301 28.9798 35.0164 28.6257 35.3027 28.2744C35.3091 28.2679 35.3151 28.261 35.3207 28.2537C35.4659 28.0739 35.6125 27.8955 35.7577 27.7157L35.7578 27.7155C35.7656 27.1643 35.7023 26.6145 35.5696 26.0795L35.5695 26.0794Z" fill="#F2F2F2"/>
<path d="M17.5644 6.67358C17.4768 6.87768 14.7764 6.85581 14.6527 7.03754C13.6991 8.44061 17.1366 14.4103 16.183 15.8152L16.0501 15.9735C16.3612 15.8301 16.6601 15.6615 16.9437 15.4694C16.9691 14.8944 16.9946 14.3175 17.0219 13.7424C17.3075 14.1078 17.5381 14.5131 17.7062 14.9453C17.9282 14.7888 18.1103 14.4987 19.0619 13.9281C19.4472 13.5048 19.8913 13.1393 20.3806 12.8425L17.5644 6.67358Z" fill="#2F2E41"/>
<path d="M19.5252 18.1725C19.2272 17.9783 18.8872 17.8581 18.5335 17.8217C18.1797 17.7852 17.8223 17.8337 17.491 17.9631C17.1597 18.0924 16.8641 18.2989 16.6286 18.5654C16.3931 18.8319 16.2245 19.1507 16.1369 19.4954L12.0332 30.1879L4.97948 26.1833C4.94851 25.723 4.77256 25.2843 4.47687 24.9302C4.18117 24.5761 3.78093 24.3247 3.33354 24.2121C2.88614 24.0996 2.41459 24.1315 1.98651 24.3035C1.55842 24.4755 1.1958 24.7787 0.950654 25.1695C0.705506 25.5603 0.590425 26.0187 0.621916 26.479C0.653408 26.9392 0.829854 27.3777 1.12595 27.7315C1.42204 28.0853 1.82257 28.3362 2.27009 28.4483C2.71761 28.5604 3.18913 28.5278 3.61702 28.3554C5.10247 29.9408 11.5425 36.4409 14.2086 33.9012C16.4496 31.7664 19.6836 23.4926 20.4621 20.6356C20.5868 20.1787 20.5632 19.694 20.3949 19.2514C20.2265 18.8088 19.922 18.431 19.5252 18.1725Z" fill="#FFB6B6"/>
<path d="M11.8197 34.3492L13.1147 40.2024L22.5841 41.0589L23.4544 35.9624L11.8197 34.3492Z" fill="#FFB6B6"/>
<path d="M26.2843 49.359C26.28 49.4429 26.2748 49.5259 26.2688 49.6098C26.1779 50.8226 26.0741 52.2214 25.9617 53.7542C25.7843 56.1867 25.5863 58.9566 25.3864 61.8544H5.52429L9.37634 50.2762C9.37634 50.2762 10.9317 49.4199 10.1399 47.9813C9.348 46.5428 10.9061 47.6892 10.9206 45.6347C10.9351 43.5802 12.3313 41.3946 12.3313 41.3946L12.5605 38.2839L12.6911 38.2865L23.0275 38.4586L23.2161 38.4621L23.5335 41.1324C25.4611 43.4262 26.4445 46.3671 26.2843 49.359Z" fill="#2F2E41"/>
<path d="M17.7298 15.3359L22.4432 15.093L24.6324 18.5523C24.6324 18.5523 28.7515 19.241 28.466 24.0948C28.1805 28.9487 23.4543 33.208 23.4543 33.208L23.6563 32.5153L23.3054 33.5179L23.3504 34.0808L23.8291 34.677L23.8784 35.2936L23.4543 36.2691C23.5094 36.3575 23.5387 36.4596 23.5388 36.5638C23.5388 36.668 23.5097 36.7701 23.4547 36.8585C23.3996 36.947 23.3209 37.0183 23.2274 37.0643C23.1339 37.1103 23.0294 37.1292 22.9258 37.1188L16.1153 36.4362C15.9603 36.0097 15.8358 35.4994 15.2143 36.3489L14.5728 36.2868L11.9058 36.0284L11.7488 35.4566C11.6596 35.1317 11.6457 34.7907 11.7082 34.4596C11.7706 34.1285 11.9078 33.816 12.1092 33.5459C11.8776 32.8205 11.9382 32.0333 12.2783 31.352L12.2911 31.3264L12.5743 31.0904C12.5743 31.0904 9.4758 26.4353 13.0328 22.9292L14.4604 20.5023L16.0578 18.5534L17.7298 15.3359Z" fill="#FFAAF6"/>
<path d="M18.9029 13.2938C21.3714 13.2938 23.3725 11.2927 23.3725 8.82426C23.3725 6.35577 21.3714 4.35468 18.9029 4.35468C16.4344 4.35468 14.4333 6.35577 14.4333 8.82426C14.4333 11.2927 16.4344 13.2938 18.9029 13.2938Z" fill="#FFB6B6"/>
<path d="M22.2977 15.263C21.9337 14.9589 21.6803 14.5431 21.577 14.0801C21.4943 14.6422 21.5159 15.2147 21.6407 15.7689C21.3987 15.9509 21.1639 16.1238 20.9419 16.2803C20.7738 15.848 20.5433 15.4428 20.2577 15.0774C20.2304 15.6524 20.2049 16.2293 20.1794 16.8044C19.8958 16.9965 19.597 17.1651 19.2859 17.3084L19.4187 17.1501C20.3723 15.7452 17.9047 13.1593 18.8582 11.7563C19.1258 11.3632 17.9174 8.2568 16.9966 8.11667C16.1777 7.99292 16.2123 8.2295 15.4188 8.40238C15.3364 8.05874 15.2085 7.72765 15.0385 7.41787C15.0838 7.76305 15.0733 8.11327 15.0076 8.45515C14.7255 8.46607 14.5036 8.28634 14.2032 8.24042C12.287 7.94743 12.4817 5.8747 13.0149 5.21774C13.5499 4.56262 15.326 4.36608 16.1449 4.15316C16.2195 4.08037 16.3888 4.12587 16.4634 4.05671C18.0328 2.62044 20.1317 2.38258 22.0206 3.01917C24.0349 3.69804 25.2908 5.01197 25.9354 7.03753L26.1203 8.65851C26.2861 9.17971 26.0775 11.6048 25.9354 12.133C25.3831 14.1861 24.2068 13.1611 22.2977 15.263Z" fill="#2F2E41"/>
<path d="M28.8147 36.4387L28.6387 22.7344C28.6295 22.1538 28.3925 21.6001 27.9786 21.1928C27.5648 20.7855 27.0074 20.5572 26.4268 20.5572C26.1264 20.5572 25.8292 20.6183 25.5532 20.737C25.2772 20.8556 25.0283 21.0292 24.8216 21.2471C24.6149 21.4651 24.4547 21.7229 24.3509 22.0048C24.2471 22.2866 24.2018 22.5867 24.2177 22.8867L24.8369 37.1165L24.8486 45.7789C24.4837 45.9337 24.1753 46.1971 23.9652 46.5332C23.7551 46.8694 23.6537 47.2621 23.6746 47.6579C23.6955 48.0538 23.8377 48.4336 24.082 48.7458C24.3262 49.058 24.6607 49.2874 25.0399 49.4029C25.4191 49.5184 25.8247 49.5143 26.2015 49.3913C26.5783 49.2683 26.9081 49.0322 27.1461 48.7152C27.3841 48.3982 27.5188 48.0156 27.5317 47.6194C27.5447 47.2232 27.4354 46.8327 27.2187 46.5008L28.8147 36.4387Z" fill="#FFB6B6"/>
<path d="M51.8826 54.1689C51.8826 54.1689 51.6105 59.0634 51.4855 61.8548H42.1165C41.9237 59.3145 41.8587 57.4481 41.8587 57.4481L41.3461 61.8548H31.8759L31.2888 53.6934L34.1261 46.6605C34.1261 46.6605 49.5017 45.5942 50.928 46.9469C52.3533 48.2987 51.8826 54.1689 51.8826 54.1689Z" fill="#2F2E41"/>
<path d="M43.5977 12.9958C46.4241 12.9958 48.7153 10.7046 48.7153 7.8782C48.7153 5.05182 46.4241 2.76059 43.5977 2.76059C40.7713 2.76059 38.4801 5.05182 38.4801 7.8782C38.4801 10.7046 40.7713 12.9958 43.5977 12.9958Z" fill="#FFB6B6"/>
<path d="M49.5629 6.21528C49.0372 6.45496 48.6966 8.19088 48.2835 7.78732C47.8703 7.38375 47.8979 6.85857 47.3409 6.70964C46.8911 6.58885 46.407 6.72689 45.9967 6.94461C45.9234 6.98302 45.8524 7.02479 45.7832 7.06633C45.7375 7.0358 45.692 7.00708 45.6432 6.98057C45.2762 6.78417 44.8478 6.73599 44.4464 6.84595C44.7636 6.95221 45.0394 7.1555 45.2348 7.42707C45.0975 7.51909 44.9584 7.61135 44.8161 7.6931C43.6275 8.379 41.9363 6.88754 40.6852 6.32724C41.4688 7.79779 41.083 8.40681 40.4026 9.92767L40.3791 10.0143C40.4177 9.6331 39.2382 9.34904 39.3066 9.88561C39.3552 10.2666 39.6849 11.1134 39.8695 11.4497C38.5542 9.92881 37.6553 8.06761 37.845 6.14763C37.8862 5.7443 37.8738 5.31874 38.0818 4.96868C38.2901 4.62042 38.7242 4.37603 39.1083 4.50883C39.0758 3.89653 39.2098 3.28685 39.4961 2.74462C39.7823 2.20238 40.2102 1.74785 40.7342 1.42936C41.2581 1.11087 41.8586 0.940309 42.4718 0.935821C43.0849 0.931333 43.6878 1.09308 44.2164 1.40387C44.7075 1.69207 45.1176 2.09967 45.5677 2.45126C46.0179 2.80285 46.5368 3.10931 47.1076 3.13834C47.4697 3.1558 47.8638 3.0674 48.1749 3.25495C48.5353 3.47257 48.597 3.9282 48.651 4.36663C48.3296 4.39832 48.0249 4.52512 47.7759 4.73083C48.1085 4.69691 48.4433 4.76872 48.7327 4.93605C48.7382 4.93854 48.7434 4.94152 48.7484 4.94496C48.9389 5.66954 48.9194 5.83017 49.5629 6.21528Z" fill="#2F2E41"/>
<path d="M31.8987 49.1364C36.2568 44.0352 34.7847 37.5469 33.055 30.9973L33.3842 21.3215C33.4003 20.8469 33.5304 20.3831 33.7635 19.9693C33.9966 19.5556 34.3259 19.204 34.7235 18.9442L39.1725 16.0377L40.9041 13.534L45.6774 14.0114L48.3243 16.8106L51.2542 19.0473C51.9899 19.6089 52.5496 20.3692 52.8675 21.2384C53.1853 22.1076 53.248 23.0496 53.0482 23.9533L50.2444 36.6331C50.2444 36.6331 51.4171 43.2064 50.7016 43.9323C49.986 44.6583 48.1423 43.9327 49.6044 44.7476C51.359 45.7256 52.9544 45.5452 52.0665 46.4331C51.1785 47.321 52.3023 48.5555 52.3023 48.5555L31.8987 49.1364Z" fill="#FFAAF6"/>
<path d="M33.7619 56.5502L34.4884 51.374L31.5894 50.5464L31.016 56.0463C30.776 56.2663 30.6022 56.5489 30.5141 56.8622C30.426 57.1756 30.427 57.5073 30.517 57.8201C30.6071 58.1329 30.7826 58.4144 31.0238 58.6329C31.2651 58.8514 31.5625 58.9983 31.8827 59.0571C32.2029 59.1158 32.5331 59.0841 32.8362 58.9655C33.1393 58.8468 33.4033 58.646 33.5986 58.3855C33.7938 58.1251 33.9125 57.8153 33.9414 57.4911C33.9702 57.1669 33.9081 56.841 33.7619 56.5502Z" fill="#FFB6B6"/>
<path d="M39.2812 16.9708C39.2812 16.9708 31.0293 19.6565 30.8325 21.6216C30.6357 23.5867 30.701 24.7897 29.8301 32.6532L29.876 53.8354C29.876 53.8354 35.4083 55.0199 34.841 53.7534C34.2736 52.487 34.4716 51.8911 34.4716 51.8911C34.4716 51.8911 35.6577 51.423 35.3608 49.936C35.0639 48.449 36.5529 41.0799 36.5529 41.0799L37.4927 27.8638L39.2812 16.9708Z" fill="#FFAAF6"/>
<path d="M49.4559 56.2761L49.0692 51.0635L52.0161 50.4272L52.2288 55.9528C52.4539 56.188 52.6088 56.4813 52.6763 56.7997C52.7438 57.1182 52.7211 57.4491 52.6108 57.7554C52.5005 58.0616 52.3069 58.331 52.0519 58.5333C51.7969 58.7356 51.4905 58.8627 51.1672 58.9004C50.8438 58.9381 50.5164 58.8849 50.2217 58.7467C49.927 58.6085 49.6767 58.3908 49.4989 58.1182C49.3211 57.8455 49.2228 57.5287 49.2152 57.2033C49.2076 56.8778 49.291 56.5568 49.4559 56.2761Z" fill="#FFB6B6"/>
<path d="M46.5355 16.4205C46.5355 16.4205 54.5942 19.6399 54.6621 21.6137C54.73 23.5874 54.5862 24.7836 54.9413 32.6872L53.5109 53.821C53.5109 53.821 47.913 54.6414 48.5619 53.4147C49.2109 52.1881 49.0523 51.5806 49.0523 51.5806C49.0523 51.5806 47.8992 51.0359 48.2927 49.5715C48.6862 48.1071 47.6821 40.6564 47.6821 40.6564L47.6081 27.4072L46.5355 16.4205Z" fill="#FFAAF6"/>
</g>
<defs>
<clipPath id="clip0_60_14156">
<rect width="80" height="60.9073" fill="white" transform="translate(0.617676 0.94751)"/>
</clipPath>
</defs>
</svg>
