<svg width="80" height="66" viewBox="0 0 80 66" fill="none" xmlns="http://www.w3.org/2000/svg">
<g clip-path="url(#clip0_36_5925)">
<path d="M19.7463 59.8571L19.909 63.2869L19.909 63.287C19.9364 63.8667 19.7325 64.4336 19.342 64.8629C18.9516 65.2922 18.4066 65.5489 17.8269 65.5764L17.7558 65.5798L17.4894 59.9641L19.7463 59.8571Z" fill="#2F2E41"/>
<path d="M68.5098 54.0609C66.8762 57.2487 64.8042 60.3318 62.1826 63.1222C62.1244 63.1852 62.0656 63.2466 62.0063 63.3091L55.795 60.3686C55.833 60.3055 55.8746 60.2347 55.9194 60.1572C58.5876 55.592 74.6938 27.7445 74.1849 21.4373C74.2442 21.9575 76.1532 39.1604 68.5098 54.0609Z" fill="#E6E6E6"/>
<path d="M63.381 63.6895C63.294 63.739 63.2049 63.7873 63.1152 63.8341L58.4556 61.6282C58.5207 61.582 58.5966 61.5273 58.6838 61.4659C60.1114 60.4409 64.3562 57.3658 68.5098 54.0609C72.9734 50.5094 77.3324 46.6933 77.9798 44.8718C77.8483 45.2895 73.7628 57.9862 63.381 63.6895Z" fill="#E6E6E6"/>
<path d="M7.75101 65.4428C11.7225 65.4428 14.942 62.2232 14.942 58.2517C14.942 54.2803 11.7225 51.0607 7.75101 51.0607C3.77952 51.0607 0.559998 54.2803 0.559998 58.2517C0.559998 62.2232 3.77952 65.4428 7.75101 65.4428Z" fill="#8D418A"/>
<path d="M10.6315 55.2341H4.8705C4.61594 55.2344 4.37188 55.3357 4.19188 55.5157C4.01188 55.6957 3.91063 55.9397 3.91034 56.1943V60.3093C3.91062 60.5638 4.01188 60.8079 4.19188 60.9879C4.37188 61.1679 4.61594 61.2691 4.8705 61.2694H10.6315C10.886 61.2691 11.1301 61.1679 11.3101 60.9879C11.4901 60.8079 11.5913 60.5638 11.5916 60.3093V56.1943C11.5913 55.9397 11.4901 55.6957 11.3101 55.5157C11.1301 55.3357 10.886 55.2344 10.6315 55.2341ZM10.6315 55.7828C10.6659 55.7829 10.7001 55.7874 10.7334 55.7961L7.75165 58.1746L4.78736 55.7912C4.81471 55.7856 4.84257 55.7828 4.87049 55.7828H10.6315ZM10.6315 60.7208H4.8705C4.7614 60.7206 4.65681 60.6772 4.57966 60.6001C4.50252 60.5229 4.45913 60.4184 4.459 60.3093V56.2312L7.57909 58.7399C7.62768 58.779 7.68812 58.8003 7.75046 58.8004C7.8128 58.8005 7.87332 58.7794 7.92206 58.7406L11.043 56.251V60.3092C11.0428 60.4183 10.9994 60.5229 10.9223 60.6001C10.8452 60.6772 10.7406 60.7206 10.6315 60.7208Z" fill="white"/>
<path d="M35.5028 47.8698L37.1117 47.883C37.2746 47.8844 37.4357 47.8502 37.5839 47.7828C37.7322 47.7155 37.8639 47.6166 37.97 47.4932C38.0761 47.3697 38.154 47.2245 38.1983 47.0678C38.2425 46.9111 38.2521 46.7467 38.2262 46.5859C38.1984 46.4129 38.1304 46.2489 38.0276 46.107C37.9248 45.965 37.7901 45.8492 37.6344 45.7689C37.4787 45.6885 37.3063 45.6458 37.1311 45.6442C36.9559 45.6426 36.7827 45.6822 36.6256 45.7597L35.1082 46.5085L29.9184 47.6658L27.695 45.3926L26.4179 47.4961L29.4182 49.8141L35.5028 47.8698Z" fill="#FFB8B8"/>
<path d="M35.2012 64.4935L33.3055 64.858C32.0107 60.7764 30.6077 56.911 30.6078 53.9214C28.7753 55.9608 26.503 57.1276 23.8271 57.494L24.1187 52.9735L26.3061 51.807L29.6537 50.2619C29.9468 50.1266 30.263 50.0484 30.5854 50.0314C31.2121 49.9984 31.8289 50.1984 32.317 50.593C32.8051 50.9875 33.13 51.5486 33.2292 52.1684L35.2012 64.4935Z" fill="#2F2E41"/>
<path d="M26.1238 56.9472L25.3682 57.5214C25.0433 57.7683 24.6595 57.926 24.2549 57.9787C23.8502 58.0315 23.4388 57.9775 23.0615 57.8221C20.8974 56.2 19.36 56.6786 17.9665 59.127C16.2952 57.2406 15.8828 54.5162 17.3745 51.6976L25.6498 51.8799L27.3268 51.3695L26.1238 56.9472Z" fill="#2F2E41"/>
<path d="M23.3678 65.3948C22.8936 65.5407 22.3832 65.5151 21.926 65.3224C21.4688 65.1298 21.0939 64.7824 20.8671 64.3412C20.1234 63.6861 19.4959 62.7483 18.9517 61.6078C18.5612 60.7712 18.2259 59.91 17.9479 59.0296C17.5713 57.8664 18.201 56.5957 19.373 56.2477C19.4079 56.2374 19.4432 56.2276 19.4789 56.2184C21.0435 55.8167 22.6502 56.7192 23.185 58.2434L24.7402 62.6756C24.8321 62.9375 24.8715 63.2148 24.8561 63.4919C24.8408 63.7689 24.7711 64.0403 24.6509 64.2904C24.5307 64.5405 24.3624 64.7645 24.1557 64.9495C23.949 65.1346 23.7078 65.2772 23.446 65.369C23.4201 65.3781 23.394 65.3867 23.3678 65.3948Z" fill="#2F2E41"/>
<path opacity="0.2" d="M18.6869 61.1031C18.6869 61.1031 20.5097 63.1446 20.8742 64.3112L18.6869 61.1031Z" fill="black"/>
<path d="M11.6175 51.4685L11.0074 52.9574C10.9457 53.108 10.9176 53.2704 10.925 53.433C10.9324 53.5956 10.9753 53.7547 11.0505 53.8991C11.1257 54.0435 11.2316 54.1697 11.3606 54.269C11.4896 54.3683 11.6388 54.4382 11.7976 54.474C11.9686 54.5124 12.1462 54.5102 12.3161 54.4675C12.4861 54.4248 12.6436 54.3428 12.7761 54.2281C12.9085 54.1134 13.0122 53.9692 13.0788 53.8071C13.1454 53.645 13.1729 53.4695 13.1593 53.2948L13.0279 51.6079L13.8814 46.3596L16.8179 45.1399L15.3395 43.1727L12.0728 45.097L11.6175 51.4685Z" fill="#FFB8B8"/>
<path d="M26.1967 51.6976C24.1018 55.2165 19.9255 56.5791 16.3486 53.8236C16.9778 51.7562 19.0093 46.0423 17.6969 45.8236C14.9104 46.9921 14.9063 44.2485 14.3851 42.8754L20.7284 40.5422L24.1552 41.4901L24.8577 41.7393C25.3148 41.9016 25.7113 42.1999 25.9939 42.5942C26.2764 42.9885 26.4314 43.4599 26.4381 43.9449C24.9986 46.0245 23.933 48.2429 26.1967 51.6976Z" fill="#8D418A"/>
<path d="M26.9987 48.8541L24.4833 46.7761L25.3218 41.9276L28.7486 45.5731L26.9987 48.8541Z" fill="#8D418A"/>
<path d="M68.7375 15.5456H68.3779V5.69888C68.3779 4.18744 67.7775 2.73791 66.7088 1.66916C65.64 0.600416 64.1905 0 62.679 0H41.8173C40.3058 0 38.8563 0.600416 37.7876 1.66916C36.7188 2.73791 36.1184 4.18744 36.1184 5.69888V59.719C36.1184 61.2304 36.7188 62.68 37.7876 63.7487C38.8563 64.8175 40.3058 65.4179 41.8173 65.4179H62.6789C64.1904 65.4179 65.6399 64.8175 66.7087 63.7487C67.7774 62.68 68.3778 61.2304 68.3778 59.719V22.5547H68.7374L68.7375 15.5456Z" fill="#3F3D56"/>
<path d="M62.909 1.48249H60.1858C60.3111 1.78953 60.359 2.12268 60.3252 2.45258C60.2914 2.78248 60.1769 3.099 59.992 3.37425C59.807 3.6495 59.5572 3.87503 59.2645 4.03097C58.9718 4.18691 58.6453 4.26847 58.3137 4.26846H46.3623C46.0307 4.26843 45.7042 4.18686 45.4116 4.03093C45.1189 3.875 44.8691 3.6495 44.6842 3.37429C44.4992 3.09907 44.3848 2.7826 44.351 2.45275C44.3171 2.12289 44.365 1.78978 44.4902 1.48276H41.9464C40.8176 1.48276 39.7351 1.93115 38.9369 2.72931C38.1388 3.52746 37.6904 4.60999 37.6904 5.73876V59.6793C37.6904 60.8081 38.1388 61.8906 38.9369 62.6888C39.7351 63.4869 40.8176 63.9353 41.9464 63.9353H62.9082C64.0369 63.9353 65.1195 63.4869 65.9176 62.6888C66.7158 61.8906 67.1642 60.8081 67.1642 59.6793V5.73848C67.1642 4.60972 66.7158 3.52719 65.9176 2.72904C65.1195 1.93088 64.0369 1.48248 62.9082 1.48248L62.909 1.48249Z" fill="white"/>
<path d="M52.4637 60.921C53.7544 60.921 54.8007 59.8746 54.8007 58.5839C54.8007 57.2932 53.7544 56.2468 52.4637 56.2468C51.1729 56.2468 50.1266 57.2932 50.1266 58.5839C50.1266 59.8746 51.1729 60.921 52.4637 60.921Z" fill="#E6E6E6"/>
<path d="M42.9827 36.9706C42.7617 36.9706 42.582 37.1758 42.582 37.428C42.582 37.6801 42.7617 37.8853 42.9827 37.8853H61.8719C62.0928 37.8853 62.2726 37.6801 62.2726 37.428C62.2726 37.1758 62.0928 36.9706 61.8719 36.9706H42.9827Z" fill="#E6E6E6"/>
<path d="M42.9827 47.7571C42.7617 47.7571 42.582 47.9623 42.582 48.2145C42.582 48.4666 42.7617 48.6718 42.9827 48.6718H61.8719C62.0928 48.6718 62.2726 48.4666 62.2726 48.2145C62.2726 47.9623 62.0928 47.7571 61.8719 47.7571H42.9827Z" fill="#E6E6E6"/>
<path d="M42.9827 39.7147C42.7617 39.7147 42.582 39.9198 42.582 40.172C42.582 40.4241 42.7617 40.6293 42.9827 40.6293H51.1107C51.3317 40.6293 51.5114 40.4242 51.5114 40.172C51.5114 39.9198 51.3317 39.7147 51.1107 39.7147H42.9827Z" fill="#E6E6E6"/>
<path d="M42.9827 42.3303C42.7617 42.3303 42.582 42.5354 42.582 42.7876C42.582 43.0397 42.7617 43.2449 42.9827 43.2449H61.8719C62.0928 43.2449 62.2726 43.0398 62.2726 42.7876C62.2726 42.5354 62.0928 42.3303 61.8719 42.3303H42.9827Z" fill="#E6E6E6"/>
<path d="M42.9827 45.0743C42.7617 45.0743 42.582 45.2795 42.582 45.5316C42.582 45.7838 42.7617 45.989 42.9827 45.989H51.1107C51.3317 45.989 51.5114 45.7838 51.5114 45.5316C51.5114 45.2795 51.3317 45.0743 51.1107 45.0743H42.9827Z" fill="#E6E6E6"/>
<path d="M46.5486 16.1462H58.3071C58.437 16.1464 58.5615 16.1981 58.6534 16.2899C58.7452 16.3818 58.7969 16.5063 58.7971 16.6362V28.8822C58.7969 29.0121 58.7452 29.1366 58.6534 29.2285C58.5615 29.3203 58.437 29.372 58.3071 29.3721H46.5486C46.4187 29.372 46.2942 29.3203 46.2023 29.2285C46.1105 29.1366 46.0588 29.0121 46.0587 28.8822V16.6362C46.0588 16.5063 46.1105 16.3818 46.2023 16.2899C46.2942 16.1981 46.4187 16.1464 46.5486 16.1462Z" fill="#8D418A"/>
<path d="M55.8016 26.8468C55.8454 26.8469 55.8887 26.8384 55.9291 26.8217C55.9695 26.8051 56.0063 26.7806 56.0372 26.7497C56.0682 26.7188 56.0928 26.6821 56.1095 26.6418C56.1263 26.6014 56.1349 26.5581 56.1349 26.5144C56.135 26.4706 56.1264 26.4273 56.1096 26.3869C56.0929 26.3465 56.0684 26.3098 56.0375 26.2789C56.0065 26.248 55.9698 26.2235 55.9294 26.2068C55.889 26.1901 55.8457 26.1815 55.802 26.1816H49.0541C49.0104 26.1815 48.9671 26.19 48.9267 26.2067C48.8862 26.2234 48.8495 26.2478 48.8186 26.2787C48.7876 26.3096 48.763 26.3463 48.7463 26.3866C48.7295 26.427 48.7208 26.4703 48.7208 26.514C48.7208 26.5578 48.7294 26.6011 48.7461 26.6415C48.7629 26.6819 48.7874 26.7186 48.8183 26.7495C48.8492 26.7804 48.886 26.8049 48.9264 26.8216C48.9668 26.8383 49.0101 26.8469 49.0538 26.8468H55.8016Z" fill="white"/>
<path d="M55.8016 24.887C55.8898 24.887 55.9744 24.852 56.0368 24.7896C56.0992 24.7272 56.1342 24.6426 56.1342 24.5544C56.1342 24.4662 56.0992 24.3816 56.0368 24.3192C55.9744 24.2568 55.8898 24.2218 55.8016 24.2218H49.0541C48.9659 24.2218 48.8813 24.2568 48.8188 24.3191C48.7564 24.3815 48.7214 24.466 48.7213 24.5543C48.7213 24.6425 48.7563 24.7271 48.8186 24.7895C48.881 24.8519 48.9656 24.887 49.0538 24.887H55.8016Z" fill="white"/>
<path d="M52.4278 18.6716C52.8419 18.6716 53.2467 18.7944 53.591 19.0245C53.9353 19.2545 54.2037 19.5815 54.3622 19.9641C54.5206 20.3467 54.5621 20.7677 54.4813 21.1738C54.4005 21.5799 54.2011 21.953 53.9083 22.2458C53.6155 22.5386 53.2424 22.738 52.8363 22.8188C52.4301 22.8996 52.0092 22.8582 51.6266 22.6997C51.244 22.5412 50.917 22.2729 50.687 21.9285C50.4569 21.5842 50.3341 21.1794 50.3341 20.7653C50.3347 20.2103 50.5555 19.6781 50.948 19.2856C51.3405 18.893 51.8727 18.6723 52.4278 18.6716Z" fill="white"/>
<path d="M25.7136 39.9074H19.4979C19.37 39.9073 19.2474 39.8564 19.157 39.766C19.0666 39.6756 19.0158 39.553 19.0156 39.4252V36.746C19.0156 35.7938 19.3939 34.8807 20.0671 34.2074C20.7404 33.5341 21.6536 33.1559 22.6057 33.1559C23.5579 33.1559 24.4711 33.5341 25.1443 34.2074C25.8176 34.8807 26.1959 35.7938 26.1959 36.746V39.4252C26.1957 39.553 26.1449 39.6756 26.0544 39.766C25.964 39.8564 25.8415 39.9073 25.7136 39.9074Z" fill="#2F2E41"/>
<path d="M25.6016 38.3764C26.2989 37.1009 25.8301 35.5016 24.5546 34.8043C23.279 34.107 21.6797 34.5758 20.9824 35.8514C20.2852 37.1269 20.7539 38.7262 22.0295 39.4235C23.305 40.1208 24.9043 39.652 25.6016 38.3764Z" fill="#FFB6B6"/>
<path d="M27.0452 37.0139H23.2444L23.2054 36.4682L23.0106 37.0139H22.4253L22.3481 35.9324L21.9619 37.0139H20.8295V36.9603C20.8303 36.2074 21.1298 35.4855 21.6622 34.9531C22.1946 34.4207 22.9164 34.1212 23.6694 34.1204H24.2052C24.9582 34.1212 25.68 34.4207 26.2124 34.9531C26.7449 35.4855 27.0443 36.2074 27.0452 36.9603V37.0139Z" fill="#2F2E41"/>
<path d="M23.2133 40.4076C23.1847 40.4076 23.1562 40.405 23.128 40.4L20.3449 39.909V35.3094H23.4086L23.3327 35.3978C22.2774 36.6286 23.0724 38.6242 23.6403 39.7043C23.6821 39.7834 23.7008 39.8727 23.6941 39.962C23.6874 40.0512 23.6557 40.1367 23.6025 40.2087C23.558 40.2703 23.4995 40.3204 23.4319 40.355C23.3642 40.3896 23.2893 40.4076 23.2133 40.4076Z" fill="#2F2E41"/>
<path d="M32.4794 63.1169L35.9131 63.1168H35.9132C36.4935 63.1168 37.0501 63.3473 37.4605 63.7577C37.8708 64.168 38.1014 64.7246 38.1014 65.3049V65.376L32.4795 65.3763L32.4794 63.1169Z" fill="#2F2E41"/>
<path d="M79.9101 65.5988H0.0898876C0.066048 65.5988 0.0431846 65.5894 0.0263274 65.5725C0.00947021 65.5557 0 65.5328 0 65.509C0 65.4851 0.00947021 65.4622 0.0263274 65.4454C0.0431846 65.4285 0.066048 65.4191 0.0898876 65.4191H79.9101C79.934 65.4191 79.9568 65.4285 79.9737 65.4454C79.9905 65.4622 80 65.4851 80 65.509C80 65.5328 79.9905 65.5557 79.9737 65.5725C79.9568 65.5894 79.934 65.5988 79.9101 65.5988Z" fill="#CACACA"/>
</g>
<defs>
<clipPath id="clip0_36_5925">
<rect width="80" height="65.5989" fill="white"/>
</clipPath>
</defs>
</svg>
