<svg width="80" height="67" viewBox="0 0 80 67" fill="none" xmlns="http://www.w3.org/2000/svg">
<g clip-path="url(#clip0_60_14123)">
<path d="M19.7463 60.4559L19.909 63.8857L19.909 63.8858C19.9364 64.4655 19.7325 65.0324 19.342 65.4617C18.9516 65.891 18.4066 66.1477 17.8269 66.1752L17.7558 66.1786L17.4894 60.563L19.7463 60.4559Z" fill="#2F2E41"/>
<path d="M68.5098 54.6597C66.8762 57.8476 64.8042 60.9307 62.1826 63.7211C62.1244 63.7841 62.0656 63.8455 62.0063 63.908L55.795 60.9675C55.833 60.9044 55.8746 60.8335 55.9194 60.756C58.5876 56.1909 74.6938 28.3433 74.1849 22.0362C74.2442 22.5563 76.1532 39.7592 68.5098 54.6597Z" fill="#E6E6E6"/>
<path d="M63.381 64.2884C63.294 64.3378 63.2049 64.3862 63.1152 64.4329L58.4556 62.227C58.5207 62.1808 58.5966 62.1261 58.6838 62.0647C60.1114 61.0397 64.3562 57.9646 68.5098 54.6597C72.9734 51.1082 77.3324 47.2921 77.9798 45.4706C77.8483 45.8883 73.7628 58.585 63.381 64.2884Z" fill="#E6E6E6"/>
<path d="M7.75101 66.0416C11.7225 66.0416 14.942 62.8221 14.942 58.8506C14.942 54.8791 11.7225 51.6596 7.75101 51.6596C3.77952 51.6596 0.559998 54.8791 0.559998 58.8506C0.559998 62.8221 3.77952 66.0416 7.75101 66.0416Z" fill="#FFAAF6"/>
<path d="M10.6315 55.8329H4.8705C4.61594 55.8332 4.37188 55.9345 4.19188 56.1145C4.01188 56.2945 3.91063 56.5385 3.91034 56.7931V60.9081C3.91062 61.1626 4.01188 61.4067 4.19188 61.5867C4.37188 61.7667 4.61594 61.8679 4.8705 61.8682H10.6315C10.886 61.8679 11.1301 61.7667 11.3101 61.5867C11.4901 61.4067 11.5913 61.1626 11.5916 60.9081V56.7931C11.5913 56.5385 11.4901 56.2945 11.3101 56.1145C11.1301 55.9345 10.886 55.8332 10.6315 55.8329ZM10.6315 56.3816C10.6659 56.3817 10.7001 56.3862 10.7334 56.3949L7.75165 58.7734L4.78736 56.3901C4.81471 56.3844 4.84257 56.3816 4.87049 56.3816H10.6315ZM10.6315 61.3196H4.8705C4.7614 61.3194 4.65681 61.276 4.57966 61.1989C4.50252 61.1218 4.45913 61.0172 4.459 60.9081V56.8301L7.57909 59.3387C7.62768 59.3778 7.68812 59.3991 7.75046 59.3992C7.8128 59.3994 7.87332 59.3782 7.92206 59.3394L11.043 56.8498V60.9081C11.0428 61.0172 10.9994 61.1218 10.9223 61.1989C10.8452 61.2761 10.7406 61.3194 10.6315 61.3196Z" fill="white"/>
<path d="M35.5028 48.4686L37.1117 48.4819C37.2746 48.4832 37.4357 48.449 37.5839 48.3817C37.7322 48.3143 37.8639 48.2155 37.97 48.092C38.0761 47.9685 38.154 47.8234 38.1983 47.6667C38.2425 47.51 38.2521 47.3455 38.2262 47.1848C38.1984 47.0118 38.1304 46.8477 38.0276 46.7058C37.9248 46.5639 37.7901 46.4481 37.6344 46.3677C37.4787 46.2873 37.3063 46.2446 37.1311 46.2431C36.9559 46.2415 36.7827 46.281 36.6256 46.3586L35.1082 47.1073L29.9184 48.2647L27.695 45.9915L26.4179 48.0949L29.4182 50.413L35.5028 48.4686Z" fill="#FFB8B8"/>
<path d="M35.2012 65.0923L33.3055 65.4569C32.0107 61.3752 30.6077 57.5098 30.6078 54.5202C28.7753 56.5597 26.503 57.7265 23.8271 58.0929L24.1187 53.5724L26.3061 52.4058L29.6537 50.8607C29.9468 50.7254 30.263 50.6472 30.5854 50.6303C31.2121 50.5973 31.8289 50.7973 32.317 51.1918C32.8051 51.5863 33.13 52.1475 33.2292 52.7672L35.2012 65.0923Z" fill="#2F2E41"/>
<path d="M26.1238 57.546L25.3682 58.1203C25.0433 58.3672 24.6595 58.5248 24.2549 58.5776C23.8502 58.6303 23.4388 58.5763 23.0615 58.421C20.8974 56.7989 19.36 57.2774 17.9665 59.7258C16.2952 57.8395 15.8828 55.115 17.3745 52.2965L25.6498 52.4787L27.3268 51.9684L26.1238 57.546Z" fill="#2F2E41"/>
<path d="M23.3678 65.9936C22.8936 66.1395 22.3832 66.1139 21.926 65.9213C21.4688 65.7287 21.0939 65.3813 20.8671 64.94C20.1234 64.285 19.4959 63.3471 18.9517 62.2067C18.5612 61.3701 18.2259 60.5088 17.9479 59.6284C17.5713 58.4653 18.201 57.1945 19.373 56.8466C19.4079 56.8362 19.4432 56.8264 19.4789 56.8173C21.0435 56.4156 22.6502 57.318 23.185 58.8423L24.7402 63.2745C24.8321 63.5363 24.8715 63.8137 24.8561 64.0907C24.8408 64.3678 24.7711 64.6391 24.6509 64.8892C24.5307 65.1393 24.3624 65.3633 24.1557 65.5484C23.949 65.7335 23.7078 65.876 23.446 65.9679C23.4201 65.977 23.394 65.9855 23.3678 65.9936Z" fill="#2F2E41"/>
<path opacity="0.2" d="M18.6869 61.702C18.6869 61.702 20.5097 63.7435 20.8742 64.91Z" fill="black"/>
<path d="M11.6175 52.0673L11.0074 53.5562C10.9457 53.7069 10.9176 53.8692 10.925 54.0318C10.9324 54.1945 10.9753 54.3535 11.0505 54.4979C11.1257 54.6423 11.2316 54.7686 11.3606 54.8678C11.4896 54.9671 11.6388 55.0371 11.7976 55.0728C11.9686 55.1113 12.1462 55.1091 12.3161 55.0663C12.4861 55.0236 12.6436 54.9416 12.7761 54.8269C12.9085 54.7122 13.0122 54.568 13.0788 54.4059C13.1454 54.2438 13.1729 54.0684 13.1593 53.8937L13.0279 52.2068L13.8814 46.9584L16.8179 45.7387L15.3395 43.7715L12.0728 45.6959L11.6175 52.0673Z" fill="#FFB8B8"/>
<path d="M26.1967 52.2964C24.1018 55.8153 19.9255 57.1779 16.3486 54.4224C16.9778 52.355 19.0093 46.6412 17.6969 46.4224C14.9104 47.591 14.9063 44.8473 14.3851 43.4742L20.7284 41.1411L24.1552 42.0889L24.8577 42.3381C25.3148 42.5004 25.7113 42.7987 25.9939 43.193C26.2764 43.5873 26.4314 44.0587 26.4381 44.5437C24.9986 46.6233 23.933 48.8417 26.1967 52.2964Z" fill="#FFAAF6"/>
<path d="M26.9987 49.4529L24.4833 47.3749L25.3218 42.5264L28.7486 46.1719L26.9987 49.4529Z" fill="#FFAAF6"/>
<path d="M68.7375 16.1445H68.3779V6.29772C68.3779 4.78629 67.7775 3.33676 66.7088 2.26801C65.64 1.19926 64.1905 0.598846 62.679 0.598846H41.8173C40.3058 0.598846 38.8563 1.19926 37.7876 2.26801C36.7188 3.33676 36.1184 4.78629 36.1184 6.29772V60.3179C36.1184 61.8293 36.7188 63.2788 37.7876 64.3476C38.8563 65.4163 40.3058 66.0167 41.8173 66.0167H62.6789C64.1904 66.0167 65.6399 65.4163 66.7087 64.3476C67.7774 63.2788 68.3778 61.8293 68.3778 60.3179V23.1535H68.7374L68.7375 16.1445Z" fill="#3F3D56"/>
<path d="M62.909 2.08136H60.1858C60.3111 2.38841 60.359 2.72156 60.3252 3.05146C60.2914 3.38135 60.1769 3.69787 59.992 3.97312C59.807 4.24837 59.5572 4.4739 59.2645 4.62984C58.9718 4.78578 58.6453 4.86734 58.3137 4.86734H46.3623C46.0307 4.86731 45.7042 4.78574 45.4116 4.62981C45.1189 4.47388 44.8691 4.24837 44.6842 3.97316C44.4992 3.69795 44.3848 3.38148 44.351 3.05162C44.3171 2.72177 44.365 2.38866 44.4902 2.08163H41.9464C40.8176 2.08163 39.7351 2.53003 38.9369 3.32819C38.1388 4.12634 37.6904 5.20887 37.6904 6.33763V60.2782C37.6904 61.407 38.1388 62.4895 38.9369 63.2877C39.7351 64.0858 40.8176 64.5342 41.9464 64.5342H62.9082C64.0369 64.5342 65.1195 64.0858 65.9176 63.2877C66.7158 62.4895 67.1642 61.407 67.1642 60.2782V6.33736C67.1642 5.2086 66.7158 4.12607 65.9176 3.32791C65.1195 2.52976 64.0369 2.08136 62.9082 2.08136L62.909 2.08136Z" fill="#1E1A1D"/>
<path d="M52.4637 61.5198C53.7544 61.5198 54.8007 60.4735 54.8007 59.1828C54.8007 57.892 53.7544 56.8457 52.4637 56.8457C51.1729 56.8457 50.1266 57.892 50.1266 59.1828C50.1266 60.4735 51.1729 61.5198 52.4637 61.5198Z" fill="#E6E6E6"/>
<path d="M42.9827 37.5695C42.7617 37.5695 42.582 37.7746 42.582 38.0268C42.582 38.2789 42.7617 38.4841 42.9827 38.4841H61.8719C62.0928 38.4841 62.2726 38.2789 62.2726 38.0268C62.2726 37.7746 62.0928 37.5695 61.8719 37.5695H42.9827Z" fill="#CDC4C8"/>
<path d="M42.9827 48.356C42.7617 48.356 42.582 48.5612 42.582 48.8133C42.582 49.0655 42.7617 49.2707 42.9827 49.2707H61.8719C62.0928 49.2707 62.2726 49.0655 62.2726 48.8133C62.2726 48.5612 62.0928 48.356 61.8719 48.356H42.9827Z" fill="#CDC4C8"/>
<path d="M42.9827 40.3135C42.7617 40.3135 42.582 40.5187 42.582 40.7708C42.582 41.023 42.7617 41.2282 42.9827 41.2282H51.1107C51.3317 41.2282 51.5114 41.023 51.5114 40.7708C51.5114 40.5187 51.3317 40.3135 51.1107 40.3135H42.9827Z" fill="#CDC4C8"/>
<path d="M42.9827 42.9291C42.7617 42.9291 42.582 43.1343 42.582 43.3864C42.582 43.6386 42.7617 43.8438 42.9827 43.8438H61.8719C62.0928 43.8438 62.2726 43.6386 62.2726 43.3864C62.2726 43.1343 62.0928 42.9291 61.8719 42.9291H42.9827Z" fill="#CDC4C8"/>
<path d="M42.9827 45.6731C42.7617 45.6731 42.582 45.8783 42.582 46.1305C42.582 46.3826 42.7617 46.5878 42.9827 46.5878H51.1107C51.3317 46.5878 51.5114 46.3826 51.5114 46.1305C51.5114 45.8783 51.3317 45.6731 51.1107 45.6731H42.9827Z" fill="#CDC4C8"/>
<path d="M46.5486 16.7451H58.3071C58.437 16.7453 58.5615 16.7969 58.6534 16.8888C58.7452 16.9806 58.7969 17.1052 58.7971 17.2351V29.4811C58.7969 29.611 58.7452 29.7355 58.6534 29.8273C58.5615 29.9192 58.437 29.9708 58.3071 29.971H46.5486C46.4187 29.9708 46.2942 29.9192 46.2023 29.8273C46.1105 29.7355 46.0588 29.611 46.0587 29.4811V17.235C46.0588 17.1052 46.1105 16.9806 46.2023 16.8888C46.2942 16.7969 46.4187 16.7453 46.5486 16.7451Z" fill="#FFAAF6"/>
<path d="M55.8016 27.4456C55.8454 27.4457 55.8887 27.4372 55.9291 27.4205C55.9695 27.4039 56.0063 27.3794 56.0372 27.3485C56.0682 27.3176 56.0928 27.281 56.1095 27.2406C56.1263 27.2002 56.1349 27.1569 56.1349 27.1132C56.135 27.0695 56.1264 27.0262 56.1096 26.9858C56.0929 26.9454 56.0684 26.9087 56.0375 26.8777C56.0065 26.8468 55.9698 26.8223 55.9294 26.8056C55.889 26.7889 55.8457 26.7803 55.802 26.7804H49.0541C49.0104 26.7803 48.9671 26.7888 48.9267 26.8055C48.8862 26.8222 48.8495 26.8466 48.8186 26.8775C48.7876 26.9084 48.763 26.9451 48.7463 26.9855C48.7295 27.0258 48.7208 27.0691 48.7208 27.1129C48.7208 27.1566 48.7294 27.1999 48.7461 27.2403C48.7629 27.2807 48.7874 27.3174 48.8183 27.3483C48.8492 27.3792 48.886 27.4037 48.9264 27.4204C48.9668 27.4371 49.0101 27.4457 49.0538 27.4456H55.8016Z" fill="#570C58"/>
<path d="M55.8016 25.4859C55.8898 25.4859 55.9744 25.4509 56.0368 25.3885C56.0992 25.3261 56.1342 25.2415 56.1342 25.1533C56.1342 25.0651 56.0992 24.9805 56.0368 24.9181C55.9744 24.8557 55.8898 24.8206 55.8016 24.8206H49.0541C48.9659 24.8206 48.8813 24.8556 48.8188 24.918C48.7564 24.9803 48.7214 25.0649 48.7213 25.1531C48.7213 25.2413 48.7563 25.3259 48.8186 25.3884C48.881 25.4508 48.9656 25.4859 49.0538 25.4859H55.8016Z" fill="#570C58"/>
<path d="M52.4278 19.2704C52.8419 19.2704 53.2467 19.3932 53.591 19.6233C53.9353 19.8534 54.2037 20.1804 54.3622 20.5629C54.5206 20.9455 54.5621 21.3665 54.4813 21.7726C54.4005 22.1788 54.2011 22.5518 53.9083 22.8446C53.6155 23.1374 53.2424 23.3369 52.8363 23.4176C52.4301 23.4984 52.0092 23.457 51.6266 23.2985C51.244 23.14 50.917 22.8717 50.687 22.5274C50.4569 22.1831 50.3341 21.7783 50.3341 21.3642C50.3347 20.8091 50.5555 20.2769 50.948 19.8844C51.3405 19.4919 51.8727 19.2711 52.4278 19.2704Z" fill="#570C58"/>
<path d="M25.7136 40.5063H19.4979C19.37 40.5061 19.2474 40.4553 19.157 40.3649C19.0666 40.2745 19.0158 40.1519 19.0156 40.024V37.3448C19.0156 36.3927 19.3939 35.4795 20.0671 34.8062C20.7404 34.133 21.6536 33.7547 22.6057 33.7547C23.5579 33.7547 24.4711 34.133 25.1443 34.8062C25.8176 35.4795 26.1959 36.3927 26.1959 37.3448V40.024C26.1957 40.1519 26.1449 40.2745 26.0544 40.3649C25.964 40.4553 25.8415 40.5061 25.7136 40.5063Z" fill="#2F2E41"/>
<path d="M25.6016 38.9753C26.2989 37.6997 25.8301 36.1004 24.5546 35.4032C23.279 34.7059 21.6797 35.1747 20.9824 36.4502C20.2852 37.7258 20.7539 39.3251 22.0295 40.0223C23.305 40.7196 24.9043 40.2508 25.6016 38.9753Z" fill="#FFB6B6"/>
<path d="M27.0452 37.6128H23.2444L23.2054 37.0671L23.0106 37.6128H22.4253L22.3481 36.5312L21.9619 37.6128H20.8295V37.5592C20.8303 36.8062 21.1298 36.0844 21.6622 35.552C22.1946 35.0196 22.9164 34.7201 23.6694 34.7192H24.2052C24.9582 34.7201 25.68 35.0196 26.2124 35.552C26.7449 36.0844 27.0443 36.8062 27.0452 37.5592V37.6128Z" fill="#2F2E41"/>
<path d="M23.2133 41.0064C23.1847 41.0064 23.1562 41.0038 23.128 40.9989L20.3449 40.5078V35.9082H23.4086L23.3327 35.9966C22.2774 37.2274 23.0724 39.2231 23.6403 40.3031C23.6821 40.3822 23.7008 40.4715 23.6941 40.5608C23.6874 40.65 23.6557 40.7356 23.6025 40.8076C23.558 40.8691 23.4995 40.9192 23.4319 40.9538C23.3642 40.9884 23.2893 41.0064 23.2133 41.0064Z" fill="#2F2E41"/>
<path d="M32.4794 63.7157L35.9131 63.7156H35.9132C36.4935 63.7156 37.0501 63.9462 37.4605 64.3565C37.8708 64.7669 38.1014 65.3234 38.1014 65.9038V65.9749L32.4795 65.9751L32.4794 63.7157Z" fill="#2F2E41"/>
<path d="M79.9101 66.1977H0.0898876C0.066048 66.1977 0.0431846 66.1882 0.0263274 66.1714C0.00947021 66.1545 0 66.1317 0 66.1078C0 66.084 0.00947021 66.0611 0.0263274 66.0443C0.0431846 66.0274 0.066048 66.0179 0.0898876 66.0179H79.9101C79.934 66.0179 79.9568 66.0274 79.9737 66.0443C79.9905 66.0611 80 66.084 80 66.1078C80 66.1317 79.9905 66.1545 79.9737 66.1714C79.9568 66.1882 79.934 66.1977 79.9101 66.1977Z" fill="#CACACA"/>
</g>
<defs>
<clipPath id="clip0_60_14123">
<rect width="80" height="65.5989" fill="white" transform="translate(0 0.598846)"/>
</clipPath>
</defs>
</svg>
